<?xml version="1.0" encoding="UTF-8"?>
<svg width="205px" height="183px" viewBox="0 0 205 183" version="1.1" xmlns="http://www.w3.org/2000/svg" xmlns:xlink="http://www.w3.org/1999/xlink">
    <title>Apple TV</title>
    <g id="Page-1" stroke="none" stroke-width="1" fill="none" fill-rule="evenodd">
        <g id="Apple-TV" transform="translate(-621, -707)">
            <rect fill="#FFFFFF" x="0" y="0" width="1920" height="1080"></rect>
            <g id="web_icon" transform="translate(621, 707)" fill="#000000" fill-rule="nonzero">
                <g id="Group" transform="translate(102.671, 91.2913) scale(-1, 1) rotate(-180) translate(-102.671, -91.2913)translate(0, 0)">
                    <path d="M49.1,181.212115 C46.6,180.412115 42.6,178.412115 40.1,176.712115 C37.7,175.012115 32.8,171.612115 29.2,169.312115 C20.6,163.712115 18.7,159.712115 18.7,147.712115 C18.8,142.712115 19.3,138.212115 20.1,136.912115 C21.2,134.812115 21.1,134.212115 19.2,132.212115 C13,125.612115 15.5,112.712115 24,108.312115 C26,107.212115 27.1,105.412115 28.4,101.012115 C29.4,97.5121153 31.5,93.5121153 33.7,91.0121153 C36.5,87.7121153 37.3,86.0121153 37,83.5121153 C36.7,80.4121153 36.2,80.0121153 25.3,75.2121153 C12.4,69.5121153 6.5,64.9121153 3.1,58.0121153 C0.9,53.5121153 0.7,51.8121153 0.4,33.0121153 L0,12.7121153 L2.6,11.6121153 C4.6,10.7121153 5.5,10.7121153 6.7,11.7121153 C8,12.8121153 8.2,15.9121153 8.1,31.8121153 C8,49.3121153 8.2,51.0121153 10.2,55.2121153 C12.1,59.2121153 17.6,64.7121153 19.6,64.7121153 C20.3,64.7121153 22.8,59.4121153 35.4,31.2121153 C39.8,21.3121153 43.9,12.6121153 44.5,11.9121153 C45.8,10.3121153 49.2,10.7121153 50.4,12.7121153 C51.3,14.1121153 45.6,28.0121153 30.8,59.9121153 L27.3,67.7121153 L30,69.1121153 C36.9,72.6121153 36.9,72.6121153 37.4,63.5121153 C38,54.1121153 39.3,50.4121153 42.8,48.8121153 C44.1,48.2121153 45.2,47.1121153 45.2,46.4121153 C45.2,44.1121153 52.1,19.4121153 53.9,15.4121153 C55.7,11.3121153 58.8,9.9121153 62.1,11.6121153 C64.2,12.8121153 67.6,22.4121153 72.2,40.1121153 C73.3,44.5121153 74.3,48.1121153 74.4,48.1121153 C78.9,49.7121153 80.8,54.1121153 81.8,64.8121153 C82.2,68.6121153 82.9,71.7121153 83.4,71.7121153 C83.9,71.7121153 86.1,70.8121153 88.2,69.7121153 L92.2,67.7121153 L88.8,60.9121153 C87,57.2121153 81.3,45.1121153 76.2,33.9121153 C68.8,17.5121153 67.3,13.3121153 68.2,12.2121153 C70,10.0121153 72.9,10.4121153 74.6,12.9121153 C75.4,14.2121153 81.1,26.2121153 87.2,39.7121153 C93.3,53.2121153 98.7,64.5121153 99.1,65.0121153 C99.5,65.4121153 101.7,64.1121153 104,62.1121153 L108.2,58.5121153 L106.2,56.0121153 C102.5,51.3121153 101.2,44.3121153 101.2,29.0121153 C101.2,16.0121153 101.4,14.5121153 103.2,12.7121153 C104.8,11.1121153 105.7,10.9121153 107.2,11.7121153 C109,12.7121153 109.1,13.8121153 108.9,29.0121153 C108.7,46.6121153 108.9,47.5121153 114.5,53.5121153 C118.5,57.7121153 121.5,57.6121153 125.8,53.3121153 C129.9,49.2121153 130,47.5121153 126.6,43.4121153 C124.6,41.1121153 124.1,39.5121153 124.3,36.2121153 C124.5,33.2121153 124,31.2121153 122.4,29.0121153 C118.8,24.0121153 119.8,16.7121153 124.5,13.7121153 C125.7,12.9121153 129,12.0121153 131.7,11.6121153 C134.5,11.3121153 138.2,10.3121153 140,9.6121153 C142.5,8.6121153 143.9,8.5121153 146.2,9.4121153 L149.2,10.5121153 L149.2,5.7121153 C149.2,0.612115299 150,-0.687884701 152.6,0.312115299 C153.8,0.712115299 154.2,2.3121153 154.2,5.8121153 L154.2,10.6121153 L157.1,9.6121153 C159.3,8.8121153 160.9,9.0121153 163.7,10.1121153 C165.8,11.0121153 168.8,11.7121153 170.4,11.7121153 C175.6,11.7121153 180.1,14.3121153 181.8,18.3121153 C183.6,22.5121153 183.1,25.2121153 180,29.2121153 C178.4,31.3121153 177.9,33.1121153 178.1,36.4121153 C178.3,40.1121153 177.9,41.2121153 175.3,43.7121153 C172.7,46.3121153 172.4,47.2121153 173.2,49.3121153 C175.7,55.8121153 183,58.6121153 188.1,55.1121153 C192.9,51.7121153 194.2,46.6121153 194.2,29.6121153 C194.2,12.7121153 194.9,10.2121153 199.3,10.9121153 L201.7,11.2121153 L201.7,29.8121153 C201.8,43.7121153 202.1,48.9121153 203.1,50.1121153 C206,53.5121153 206,58.6121153 203.6,76.5121153 C199.8,104.012115 196.3,125.412115 194.2,134.512115 C188.8,157.012115 178.2,167.312115 157.8,169.812115 C142.1,171.712115 129.3,168.012115 120.2,158.812115 C111.1,149.612115 108.4,140.412115 103.1,99.0121153 C101.1,83.8121153 99.4,73.7121153 98.8,73.8121153 C98.2,73.8121153 94.3,75.3121153 90.2,77.0121153 C82.9,80.2121153 82.7,80.4121153 82.4,84.0121153 C82.2,86.0121153 82.5,87.7121153 83,87.7121153 C84.6,87.7121153 89,95.2121153 90.8,100.812115 C92,104.512115 93.9,107.512115 96.8,110.212115 C103.4,116.512115 105.1,126.112115 100.4,131.312115 C99,132.812115 98.7,135.112115 98.7,143.712115 C98.7,153.012115 98.4,154.912115 96,159.912115 C92.8,166.712115 86.4,173.912115 80.4,177.412115 C71.9,182.412115 58.4,184.012115 49.1,181.212115 Z M72.4,172.712115 C79.9,169.912115 84.6,165.612115 88.1,158.412115 C91.5,151.612115 93.1,142.112115 91.4,139.112115 C90.4,137.412115 90.2,137.412115 89.2,140.212115 C86.9,146.312115 86.2,146.612115 73.3,146.012115 L61.6,145.412115 L52.7,149.112115 C47.7,151.212115 42.5,153.412115 40.9,154.012115 C36.8,155.712115 35.1,154.112115 31.7,145.412115 C30.1,141.212115 28.4,137.712115 28.1,137.712115 C25.8,137.712115 25.5,153.512115 27.7,157.712115 C28.5,159.312115 31.3,161.812115 34,163.312115 C36.6,164.812115 40.1,167.212115 41.7,168.512115 C49.5,175.012115 61.9,176.712115 72.4,172.712115 Z M167.3,159.812115 C174.6,157.012115 181.1,150.312115 184.1,142.212115 C187,134.512115 188.5,127.112115 192.6,99.2121153 C197.5,66.4121153 198.6,57.7121153 197.9,57.0121153 C197.5,56.7121153 195.5,58.0121153 193.4,59.9121153 C189.6,63.3121153 186.6,64.7121153 175.2,68.5121153 C170.5,70.1121153 169.7,70.8121153 169.4,73.1121153 C169.1,75.3121153 170.1,76.9121153 174,80.8121153 C182.5,89.3121153 188,104.512115 186.7,115.712115 C184.1,137.812115 176.4,148.712115 159.3,154.212115 C154.5,155.812115 153,155.812115 147.3,154.812115 C138.5,153.212115 133.3,150.712115 128,145.812115 C120.2,138.612115 116.2,127.512115 116.2,112.712115 C116.2,99.8121153 120.7,88.4121153 129.1,80.2121153 C133.3,76.2121153 134.3,72.8121153 131.9,70.9121153 C131.2,70.3121153 127,68.3121153 122.6,66.4121153 L114.5,63.0121153 L110.6,66.6121153 C108.5,68.6121153 106.8,70.6121153 106.9,71.2121153 C107,71.7121153 108.8,84.1121153 110.7,98.7121153 C115.1,131.112115 116.6,138.712115 120,145.612115 C123.8,153.312115 131.6,159.412115 140.7,161.812115 C146,163.212115 161.2,162.112115 167.3,159.812115 Z M159.4,146.112115 C165.7,144.012115 172,138.312115 174.8,132.312115 C176.1,129.512115 176.9,127.112115 176.7,126.912115 C175.5,125.712115 167.1,131.112115 163.3,135.512115 C161,138.412115 158.5,140.712115 157.8,140.712115 C157.2,140.712115 153.9,138.112115 150.6,134.912115 C143.9,128.312115 137.9,125.712115 130,125.712115 C124.2,125.712115 124.1,126.412115 128.5,133.712115 C135.2,145.012115 147.9,150.112115 159.4,146.112115 Z M46.1,143.312115 C54.3,139.112115 62.7,137.412115 72.8,137.912115 L81.9,138.412115 L83.8,133.512115 C86.3,126.912115 88.1,125.312115 91.6,126.712115 C93.9,127.512115 94.4,127.412115 95.3,125.312115 C96.9,121.912115 94.1,116.512115 89.7,114.412115 C87,113.112115 86.1,111.912115 85.1,108.512115 C82,96.9121153 79.8,93.6121153 72.9,89.9121153 C68.5,87.7121153 66.5,87.2121153 59.7,87.2121153 C45.9,87.3121153 38.9,92.4121153 34.6,105.612115 C33,110.612115 31.9,112.512115 29.9,113.512115 C26.2,115.312115 23.2,119.512115 23.2,122.812115 C23.2,126.112115 24.6,127.212115 29.1,127.212115 C32.4,127.212115 32.5,127.312115 36.1,136.412115 C38.1,141.512115 40.1,145.712115 40.5,145.712115 C40.9,145.712115 43.4,144.612115 46.1,143.312115 Z M161.2,126.312115 C163.2,124.512115 167.1,122.212115 169.8,121.212115 C179.4,117.812115 179.20032,118.012115 179.20032,114.412115 C179.20032,108.712115 177.3,100.812115 174.5,94.5121153 C169.6,83.5121153 157.5,76.6121153 147.2,78.8121153 C134.5,81.5121153 124.7,94.4121153 123.5,109.812115 L122.9,117.412115 L130.3,117.912115 C139.3,118.612115 147.6,121.612115 152.8,126.212115 C154.9,128.112115 156.9,129.612115 157.1,129.712115 C157.3,129.712115 159.1,128.212115 161.2,126.312115 Z M49.7,80.2121153 C55,78.3121153 63.9,78.3121153 69.2,80.2121153 C71.6,81.0121153 73.8,81.4121153 74.1,81.1121153 C74.4,80.8121153 72.7,78.8121153 70.3,76.6121153 C66.9,73.5121153 65.6,72.9121153 64.2,73.7121153 C61.8,75.0121153 57.6,75.0121153 55.1,73.7121153 C52.8,72.4121153 48.1,74.5121153 45.8,77.9121153 C42.9,82.0121153 43.6,82.4121153 49.7,80.2121153 Z M151.7,70.7121153 C154.7,70.7121153 158.2,71.1121153 159.6,71.7121153 C161.9,72.5121153 162.2,72.4121153 162.2,70.4121153 C162.2,66.9121153 164.8,64.0121153 169.7,62.1121153 L174.2,60.4121153 L170.7,56.6121153 C168.8,54.4121153 167.2,52.4121153 167.2,51.9121153 C167.2,51.5121153 166.8,50.6121153 166.3,49.8121153 C165.6,48.8121153 164.4,49.5121153 161,53.1121153 C156.9,57.4121153 156.2,57.7121153 151.5,57.7121153 C145.9,57.7121153 142.2,55.5121153 139.7,50.6121153 C137.7,46.9121153 136.8,46.9121153 135.1,50.9121153 C134.4,52.7121153 132.5,55.5121153 131,57.3121153 L128.2,60.4121153 L132.2,62.2121153 C136.6,64.2121153 139.7,67.1121153 140.6,70.4121153 C141.2,72.3121153 141.7,72.5121153 143.8,71.7121153 C145.2,71.1121153 148.7,70.7121153 151.7,70.7121153 Z M73.7,59.0121153 C73.1,55.6121153 71.2,54.7121153 69.4,57.0121153 C68.7,57.8121153 68.7,58.8121153 69.2,59.7121153 C69.8,60.5121153 70.2,62.5121153 70.2,64.1121153 C70.2,65.7121153 71,67.6121153 72,68.3121153 C73.5,69.4121153 73.7,69.2121153 74,65.9121153 C74.2,63.9121153 74.1,60.8121153 73.7,59.0121153 Z M47.1,67.7121153 C48.1,67.2121153 49,65.5121153 49.1,64.0121153 C49.2,62.5121153 49.4,60.1121153 49.5,58.7121153 C49.7,55.9121153 46.8,54.6121153 45.9,57.1121153 C44.9,59.8121153 43.9,68.7121153 44.6,68.7121153 C45,68.7121153 46.1,68.3121153 47.1,67.7121153 Z M62,64.5121153 C61.8,63.0121153 61,62.2121153 59.7,62.2121153 C58.4,62.2121153 57.6,63.0121153 57.4,64.5121153 C57.1,66.3121153 57.5,66.7121153 59.7,66.7121153 C61.9,66.7121153 62.3,66.3121153 62,64.5121153 Z M64.8,51.6121153 L67,49.5121153 L63.5,36.4121153 C60.2,23.6121153 59.6,21.9121153 58.8,22.8121153 C58.7,23.0121153 57,28.9121153 55.2,36.0121153 L51.9,48.7121153 L54.2,51.2121153 C57.1,54.3121153 61.7,54.5121153 64.8,51.6121153 Z M155.3,48.7121153 C156.3,48.1121153 157.2,46.9121153 157.2,45.9121153 C157.2,44.5121153 156.2,44.2121153 151.2,44.2121153 C146.2,44.2121153 145.2,44.5121153 145.2,45.9121153 C145.2,49.2121153 151.2,50.8121153 155.3,48.7121153 Z M138.4,34.8121153 C138,30.1121153 138.2,29.5121153 141.2,26.7121153 C143,25.1121153 145,23.7121153 145.8,23.7121153 C147.7,23.7121153 147.6,19.2121153 145.6,17.3121153 C143.3,14.9121153 141.2,15.6121153 139.9,19.0121153 C138.9,21.6121153 136.4,22.2121153 134.3,20.3121153 C132.1,18.3121153 129.8,18.2121153 128.2,20.2121153 C126.4,22.4121153 128,25.7121153 131.3,26.4121153 C132.9,26.7121153 134.6,27.5121153 135.2,28.2121153 C136.5,29.7121153 135.5,32.7121153 133.7,32.7121153 C130.5,32.7121153 130.8,40.2121153 134,41.0121153 C137.7,41.8121153 138.9,40.1121153 138.4,34.8121153 Z M170,39.5121153 C172,37.5121153 171.4,34.0121153 168.7,32.3121153 C165.5,30.2121153 166.5,27.8121153 171.3,26.3121153 C173.9,25.5121153 174.7,24.6121153 174.7,22.8121153 C174.7,19.6121153 171.8,17.8121153 169.5,19.5121153 C165.8,22.1121153 164.9,22.0121153 162.3,18.9121153 C159.3,15.2121153 158.9,15.1121153 156.8,17.3121153 C154.1,19.9121153 154.8,23.1121153 158.6,25.1121153 C162.7,27.3121153 164.7,31.4121153 163.8,36.0121153 C163.5,37.8121153 163.5,39.6121153 163.9,40.0121153 C165,41.1121153 168.7,40.8121153 170,39.5121153 Z M156,34.2121153 C156.5,32.0121153 154.6,30.7121153 150.6,30.7121153 C146.7,30.7121153 144.4,33.0121153 146.2,35.1121153 C148.6,38.1121153 155.4,37.5121153 156,34.2121153 Z" id="Shape"></path>
                    <path d="M39.4,126.112115 C35,123.012115 37.8,116.712115 42.3,119.512115 C44.9,121.212115 48.2,121.012115 48.8,119.212115 C50,116.312115 55.2,118.112115 55.2,121.412115 C55.2,122.212115 54.1,123.912115 52.7,125.212115 C49.8,128.212115 43,128.612115 39.4,126.112115 Z" id="Path"></path>
                    <path d="M65.6,125.212115 C63.6,123.212115 63.3,122.412115 64.2,120.712115 C65.3,118.612115 68.6,118.012115 69.7,119.712115 C70.6,121.212115 74.8,120.912115 76.2,119.212115 C78.2,116.712115 81.6,117.712115 82,120.812115 C82.7,127.212115 70.8,130.412115 65.6,125.212115 Z" id="Path"></path>
                    <path d="M64.7,103.112115 C63.3,102.012115 61.5,101.712115 58.7,102.212115 C49.5,103.512115 48.7,103.412115 48.7,100.712115 C48.7,96.9121153 54.1,94.5121153 61.4,95.0121153 C69.6,95.5121153 73.4,99.3121153 69.6,103.112115 C67.7,105.012115 67.2,105.012115 64.7,103.112115 Z" id="Path"></path>
                    <path d="M132.8,111.412115 C131.8,110.712115 131.2,109.212115 131.4,108.112115 C131.7,106.712115 132.5,106.312115 134.7,106.512115 C136.3,106.712115 138.6,106.312115 139.9,105.612115 C141.7,104.712115 142.4,104.712115 143.7,105.712115 C148.8,109.912115 138.3,115.412115 132.8,111.412115 Z" id="Path"></path>
                    <path d="M156.8,111.112115 C155.9,110.312115 155.2,109.212115 155.2,108.812115 C155.2,107.212115 158,105.712115 159.6,106.312115 C160.7,106.712115 162.2,106.112115 163.7,104.712115 C166.3,102.312115 168.8,102.512115 169.9,105.312115 C170.8,107.712115 165,112.712115 161.3,112.712115 C159.7,112.712115 157.6,112.012115 156.8,111.112115 Z" id="Path"></path>
                    <path d="M142.3,92.4121153 C139.1,88.4121153 147.4,84.1121153 154.9,85.8121153 C159.5,86.8121153 161.5,89.2121153 160.1,91.9121153 C159.3,93.4121153 158.5,93.7121153 156.9,93.2121153 C154,92.2121153 150.4,92.2121153 146.6,93.1121153 C144.4,93.7121153 143.2,93.5121153 142.3,92.4121153 Z" id="Path"></path>
                </g>
            </g>
        </g>
    </g>
</svg>