<?xml version="1.0" encoding="UTF-8"?>
<svg width="1261px" height="984px" viewBox="0 0 1261 984" version="1.1" xmlns="http://www.w3.org/2000/svg" xmlns:xlink="http://www.w3.org/1999/xlink">
    <title>Studio Display</title>
    <g id="Page-1" stroke="none" stroke-width="1" fill="none" fill-rule="evenodd">
        <g id="Studio-Display" transform="translate(0, -4)">
            <path d="M973,3.5 C998.04,15.071 1007.37,34.2377 1001,61 C994.56,73.743 984.56,82.576 971,87.5 C977.05,96.1 982.22,105.266 986.5,115 C1007.46,174.166 1022.46,234.833 1031.5,297 C1034.46,324.548 1030.96,351.215 1021,377 C1024.42,382.168 1027.59,387.502 1030.5,393 C1034.96,402.592 1036.12,412.592 1034,423 C1034.69,424.853 1036.02,426.019 1038,426.5 C1068.41,438.304 1098.75,450.304 1129,462.5 C1151.26,472.046 1170.43,485.88 1186.5,504 C1202.71,526.933 1213.71,552.266 1219.5,580 C1232.99,646.288 1244.33,712.955 1253.5,780 C1257.79,810.689 1260.29,841.522 1261,872.5 C1259.35,911.253 1255.35,949.753 1249,988 L1242,988 L1242,985 C1247.87,954.229 1251.87,923.229 1254,892 C1253.84,894.357 1254,896.69 1254.5,899 C1256.26,869.253 1255.26,839.587 1251.5,810 C1251.01,811.293 1250.84,812.627 1251,814 C1242.14,739.833 1230.14,666.166 1215,593 C1209.85,564.037 1199.68,537.037 1184.5,512 C1168.91,492.786 1149.74,478.286 1127,468.5 L1032,431 C1018.86,451.311 1002.19,468.144 982,481.5 C945.26,507.699 904.59,524.865 860,533 L857,532 C908.53,519.236 954.86,496.402 996,463.5 C1005.24,454.935 1013.74,445.768 1021.5,436 C1032.21,418.332 1031.21,401.332 1018.5,385 C1006.87,413.087 989.7,437.254 967,457.5 C943.75,477.456 919.09,495.456 893,511.5 C889.12,513.784 885.12,515.451 881,516.5 C918.99,493.528 953.15,465.694 983.5,433 C1015.11,392.494 1028.77,346.494 1024.5,295 C1015.16,234.99 1000.5,176.323 980.5,119 C956.44,66.197 915.94,33.6972 859,21.5 C847.438,19.2771 835.771,18.1105 824,18 C748.164,20.0016 697.33,56.6683 671.5,128 C651.645,188.128 641.645,249.795 641.5,313 C644.038,347.985 657.038,378.318 680.5,404 C696.819,419.152 712.652,434.818 728,451 C711.38,439.663 695.547,426.663 680.5,412 C677.711,420.028 675.545,428.194 674,436.5 C673.943,441.221 675.443,445.388 678.5,449 C698.598,470.954 721.431,489.454 747,504.5 C766.317,515.827 786.984,523.16 809,526.5 C791,515.499 773.834,503.332 757.5,490 C756.833,489.333 756.833,488.667 757.5,488 C775.741,500.871 794.241,513.371 813,525.5 C814.507,526.337 815.007,527.504 814.5,529 C802.8,529.854 791.3,528.354 780,524.5 C756.659,517.164 735.326,506.164 716,491.5 C699.879,479.544 685.212,466.044 672,451 C641.136,464.43 611.469,479.93 583,497.5 C564.133,509.411 551.133,525.911 544,547 C543.403,546.765 543.07,546.265 543,545.5 C544.077,542.617 544.91,539.783 545.5,537 C542.916,540.436 540.083,543.103 537,545 C544.155,525.864 555.821,510.031 572,497.5 C586.807,487.373 602.14,478.039 618,469.5 C635.344,461.495 652.344,452.995 669,444 C667.894,439.723 667.728,435.39 668.5,431 C672.243,423.035 673.91,414.702 673.5,406 C646.142,372.927 633.308,334.76 635,291.5 C637.792,228.041 650.125,166.541 672,107 C661.299,105.565 653.132,100.232 647.5,91 C636.195,61.4227 645.028,39.9227 674,26.5 C695.173,20.0948 710.006,26.9281 718.5,47 C737.272,31.1717 758.772,20.6717 783,15.5 C829.604,6.1804 873.6,13.0138 915,36 C916.14,30.4276 917.97,25.0943 920.5,20 C933.81,1.8983 951.31,-3.6017 973,3.5 Z M712,50.5 C707.513,35.8908 697.513,29.3908 682,31 C665.778,36.0547 654.944,46.7214 649.5,63 C646.512,83.512 655.012,96.512 675,102 C681.85,89.325 689.683,77.325 698.5,66 C703.797,61.3807 708.297,56.214 712,50.5 Z M947,8 C943.43,9.7874 939.76,11.6207 936,13.5 C926.18,20.1406 921.85,29.3072 923,41 C940.15,50.8165 954.49,63.8165 966,80 C967.22,81.114 968.56,81.281 970,80.5 C996.46,68.459 1002.96,49.6256 989.5,24 C978.31,10.9965 964.14,5.6631 947,8 Z" id="Combined-Shape" fill="#181713"></path>
            <path d="M837,133.5 C844.712,134.452 852.379,135.619 860,137 C889.74,144.211 916.74,156.711 941,174.5 C932.59,161.418 922.09,150.251 909.5,141 C908.81,140.168 908.98,139.502 910,139 C923.86,148.023 936.03,159.023 946.5,172 C964.02,195.221 978.69,220.221 990.5,247 C1012.82,305.474 1005.49,359.807 968.5,410 C953.74,429.427 936.91,446.927 918,462.5 L856,512.5 L839,524 C836.971,522.656 834.971,521.323 833,520 C799.366,495.217 766.7,469.05 735,441.5 C714.699,422.538 695.866,402.372 678.5,381 C656.979,348.914 648.312,313.58 652.5,275 C655.329,248.514 662.995,223.514 675.5,200 C678.899,193.932 683.065,188.432 688,183.5 C729.141,142.341 778.807,125.675 837,133.5 Z M926,357 C913.38,376.795 897.71,393.962 879,408.5 C868.323,417.622 855.989,423.288 842,425.5 C825.387,428.33 809.053,427.33 793,422.5 C776.206,414.053 761.373,402.887 748.5,389 C750.465,402.617 750.465,416.283 748.5,430 C747.072,434.138 745.739,438.138 744.5,442 C775.029,467.675 806.195,492.508 838,516.5 C839,517.167 840,517.167 841,516.5 L910,461.5 C922.8,450.368 935.3,438.868 947.5,427 C948.17,426.333 948.17,425.667 947.5,425 C940.5,419.997 935.84,413.331 933.5,405 C930.47,388.941 927.97,372.941 926,357 Z M680,225 C679.027,221.352 676.693,219.686 673,220 C651.617,267.734 651.784,315.401 673.5,363 C690.967,391.204 712.634,415.87 738.5,437 C740.633,433.268 741.966,429.268 742.5,425 C743.167,415.333 743.167,405.667 742.5,396 C742.032,389.45 740.032,383.45 736.5,378 C718.655,360.312 707.655,338.979 703.5,314 L692.5,305 C679.92,287.596 673.086,268.096 672,246.5 C671.451,238.104 674.118,230.937 680,225 Z M960,209 C953.86,221.579 948.19,234.412 943,247.5 C942.05,248.117 941.22,247.951 940.5,247 C939.98,238.56 938.82,230.227 937,222 C931.45,221.312 925.95,220.646 920.5,220 C921.57,233.652 919.24,246.652 913.5,259 C911.96,260.878 910.12,262.378 908,263.5 C892.9,268.328 877.4,270.828 861.5,271 C849.113,272.437 839.446,268.104 832.5,258 C828.599,249.399 826.099,240.399 825,231 C813.879,227.651 803.212,228.651 793,234 C793.612,236.443 793.945,238.943 794,241.5 C794.041,253.001 790.708,263.335 784,272.5 C766.929,278.956 749.262,281.623 731,280.5 C721.892,280.362 714.392,276.862 708.5,270 C703.58,260.827 700.746,250.994 700,240.5 C699.82,238.259 698.987,237.759 697.5,239 C696.892,245.374 697.225,251.707 698.5,258 C701.114,273.405 704.114,288.738 707.5,304 C710.478,322.604 716.811,339.937 726.5,356 C742,374.167 758.833,391 777,406.5 C786.443,413.873 797.11,418.54 809,420.5 C828.749,422.987 847.416,419.653 865,410.5 C880.03,399.479 893.86,386.979 906.5,373 C916.84,360.976 925.18,347.643 931.5,333 C936.59,316.986 940.25,300.653 942.5,284 C943.51,283.163 944.68,282.83 946,283 L946,298 C953.23,295.955 958.73,291.622 962.5,285 C968.49,274.366 972.49,263.033 974.5,251 C977.05,237.036 974.72,224.036 967.5,212 C965.65,209.459 963.15,208.459 960,209 Z M981,242 C979.94,262.019 973.44,280.019 961.5,296 C956.73,300.968 950.9,303.635 944,304 C942.85,318.272 939.35,331.939 933.5,345 C933.55,365.58 935.89,385.913 940.5,406 C942.21,410.373 944.71,414.207 948,417.5 C949.71,419.251 951.71,419.918 954,419.5 C960.07,411.767 965.74,403.767 971,395.5 C969.05,392.549 966.72,389.882 964,387.5 C956.03,382.505 947.36,379.338 938,378 C952.2,375.157 964.37,379.157 974.5,390 L975.5,389 C1001.93,340.79 1003.76,291.79 981,242 Z M738,221 C726.32,221.299 715.487,224.633 705.5,231 C704.725,237.922 705.225,244.755 707,251.5 C708.3,261.454 713.3,268.788 722,273.5 C741.418,276.511 760.418,274.844 779,268.5 C784.355,262.782 787.188,255.949 787.5,248 C791.318,232.125 785.152,223.292 769,221.5 C758.672,221 748.339,220.834 738,221 Z M871,211 C856.864,211.535 843.697,215.535 831.5,223 C830.742,229.391 831.076,235.724 832.5,242 C834.005,251.539 838.839,258.705 847,263.5 C861.35,265.389 875.68,265.056 890,262.5 C895.54,261.449 900.88,259.782 906,257.5 C907.88,255.957 909.38,254.124 910.5,252 C914.26,240.489 914.93,228.823 912.5,217 C909.13,214.231 905.3,212.398 901,211.5 C891.01,211 881.01,210.834 871,211 Z M796,139 C759.763,141.203 728.93,155.203 703.5,181 C699.55,198.506 697.716,216.173 698,234 C702.044,226.795 708.044,221.961 716,219.5 C732.809,215.794 749.809,214.46 767,215.5 C777.308,215.987 785.642,220.154 792,228 C802.779,222.604 813.946,221.604 825.5,225 C827.974,218.526 832.474,214.026 839,211.5 C859.233,205.393 879.9,203.393 901,205.5 C907.28,205.805 912.28,208.472 916,213.5 C922.29,215.153 928.63,215.319 935,214 C931,199.498 926.5,185.164 921.5,171 C883.39,146.222 841.557,135.555 796,139 Z" id="Combined-Shape" fill="#181813"></path>
            <path d="M847,364 C848.844,364.704 849.344,366.037 848.5,368 C846.942,369.859 845.109,371.359 843,372.5 C828.571,378.814 813.904,379.481 799,374.5 C794.896,372.165 795.063,370.332 799.5,369 C813.332,374.222 827.165,374.055 841,368.5 C843.247,367.223 845.247,365.723 847,364 Z" id="Path" fill="#191915"></path>
            <path d="M873.5,331 C867.365,336.134 861.531,341.634 856,347.5 C831.01,366.787 806.01,366.787 781,347.5 C776.104,343.558 771.437,339.392 767,335 C767.671,333.554 768.838,332.888 770.5,333 C796.776,338.718 822.942,338.218 849,331.5 C855.956,330.264 862.622,328.431 869,326 C873.18,325.342 874.68,327.008 873.5,331 Z M859,335.5 C858.052,335.017 857.052,334.851 856,335 C852.594,336.609 848.927,337.776 845,338.5 C824.766,341.886 804.433,342.886 784,341.5 C786.147,343.737 788.48,345.737 791,347.5 C816.799,361.541 839.465,357.541 859,335.5 Z" id="Combined-Shape" fill="#181712"></path>
            <path d="M762,321 C763.38,321.462 764.047,322.462 764,324 C762.177,327.802 761.177,331.802 761,336 C757.959,336.121 756.292,334.621 756,331.5 C756.854,327.287 758.854,323.787 762,321 Z" id="Path" fill="#1A1916"></path>
            <path d="M874,313 C880.31,313.806 884.31,317.306 886,323.5 C885.77,326.761 884.27,327.928 881.5,327 C881.43,321.862 879.1,318.195 874.5,316 C874.02,315.052 873.85,314.052 874,313 Z" id="Path" fill="#13120F"></path>
            <path d="M802,240 C802.996,239.914 803.829,240.248 804.5,241 C805.262,260.955 800.262,279.289 789.5,296 C788.377,299.456 789.21,302.29 792,304.5 C796.743,305.97 801.409,307.636 806,309.5 C809.597,310.777 813.264,311.11 817,310.5 C823.827,306.087 831.16,302.754 839,300.5 C840.857,299.318 841.857,297.651 842,295.5 C840.64,293.23 839.973,290.73 840,288 C843.67,287.827 846.17,289.493 847.5,293 C848.775,299.182 846.608,303.682 841,306.5 C837.41,308.03 833.743,309.364 830,310.5 C826.239,313.265 822.239,315.598 818,317.5 C807.408,316.75 797.408,313.75 788,308.5 C784.383,305.441 782.883,301.608 783.5,297 C794.744,279.708 800.91,260.708 802,240 Z" id="Path" fill="#191814"></path>
            <path d="M682,232 C684.497,235.66 686.497,239.66 688,244 C685.845,244.338 683.511,244.338 681,244 C680.738,245.478 681.071,246.811 682,248 C684.253,248.753 686.087,250.086 687.5,252 C689.167,255.333 690.833,258.667 692.5,262 C695.461,275.803 698.294,289.637 701,303.5 C700.952,304.533 700.619,304.866 700,304.5 C683.832,285.662 676.665,263.829 678.5,239 C679.459,236.547 680.626,234.214 682,232 Z" id="Path" fill="#F8F6F2"></path>
            <path d="M967,224 C968,224 969,224 970,224 C968.18,228.013 965.68,231.68 962.5,235 C960.25,238.507 958.25,242.173 956.5,246 C955.83,248.333 955.83,250.667 956.5,253 C961.33,263.788 959.17,272.955 950,280.5 C949.05,280.983 948.05,281.149 947,281 C949.86,275.264 952.2,269.264 954,263 C953.07,259.126 951.57,255.46 949.5,252 C951.44,240.227 957.27,230.894 967,224 Z" id="Path" fill="#161612"></path>
            <path d="M745,233 C754.165,231.942 762.832,233.442 771,237.5 C772.519,238.851 773.852,240.351 775,242 C774.613,243.22 773.78,243.887 772.5,244 C769.428,242.213 766.261,240.547 763,239 C763.444,242.302 762.944,245.635 761.5,249 C756.8,252.899 752.134,252.899 747.5,249 C745.494,245.964 744.66,242.631 745,239 C739.142,240.596 733.809,243.262 729,247 C728,246.667 727.333,246 727,245 C727.753,242.747 729.086,240.913 731,239.5 C735.534,236.833 740.2,234.666 745,233 Z" id="Path" fill="#191813"></path>
            <path d="M866,224 C873.4,223.7 880.73,224.2 888,225.5 C891.16,226.437 893.99,227.937 896.5,230 C896.99,231.634 897.16,233.301 897,235 C891.56,233.243 886.06,231.576 880.5,230 C880,230.333 879.5,230.667 879,231 C881.12,242.043 876.79,245.876 866,242.5 C862.766,239.814 861.1,236.314 861,232 C857.13,233.77 853.797,236.27 851,239.5 C849.181,240.283 847.848,239.783 847,238 C848.047,235.07 849.713,232.57 852,230.5 C856.647,228.006 861.314,225.839 866,224 Z" id="Path" fill="#191814"></path>
            <path d="M737,193 C751.191,191.339 764.524,193.839 777,200.5 C778.825,201.966 779.325,203.799 778.5,206 C764.744,206.198 750.911,206.365 737,206.5 C730.477,207.897 724.143,209.897 718,212.5 C713.4,214.083 711.566,212.583 712.5,208 C718.596,199.539 726.763,194.539 737,193 Z" id="Path" fill="#191813"></path>
            <path d="M869,182 C879.54,181.587 889.87,182.754 900,185.5 C905.54,187.679 908.71,191.512 909.5,197 C907.93,197.622 906.26,197.956 904.5,198 C884.42,193.329 864.583,194.163 845,200.5 C842.273,201.318 839.606,201.152 837,200 C836.072,198.732 835.905,197.399 836.5,196 C842.952,189.356 850.785,185.189 860,183.5 C863.195,183.319 866.195,182.819 869,182 Z" id="Path" fill="#191814"></path>
            <path d="M214.5,125 C234.671,125.726 247.337,135.726 252.5,155 C259.762,149.615 267.596,145.115 276,141.5 C330.798,116.597 383.632,120.097 434.5,152 C440.144,140.925 448.977,133.758 461,130.5 C488.99,127.087 507.156,138.92 515.5,166 C518.569,189.029 510.069,206.196 490,217.5 C495.292,230.043 499.792,242.876 503.5,256 C515.727,304.363 524.394,353.363 529.5,403 C532.195,425.976 532.528,448.976 530.5,472 C527.902,494.001 518.735,512.668 503,528 C504.554,531.277 506.221,534.444 508,537.5 C517.642,539.367 526.808,542.533 535.5,547 C536.217,546.456 536.717,545.789 537,545 C540.083,543.103 542.916,540.436 545.5,537 C544.91,539.783 544.077,542.617 543,545.5 C543.07,546.265 543.403,546.765 544,547 C542.874,548.358 542.874,549.692 544,551 C565.329,563.16 580.829,580.493 590.5,603 C587.128,584.309 583.295,565.642 579,547 L580,545 C587.461,565.555 593.627,586.555 598.5,608 C622.552,733.507 634.719,860.174 635,988 L510,988 C519.723,909.664 529.556,831.331 539.5,753 C544.23,722.948 542.563,693.282 534.5,664 C526.927,636.774 517.093,610.441 505,585 C489.808,580.389 477.808,571.389 469,558 C468.667,558.167 468.333,558.333 468,558.5 C474.471,570.279 483.137,580.112 494,588 C479.243,592.05 465.409,590.05 452.5,582 C427.209,601.572 398.709,612.572 367,615 C367.209,614.414 367.543,613.914 368,613.5 C391.081,609.252 412.748,601.252 433,589.5 C437.786,586.382 442.286,582.882 446.5,579 C447.167,578.333 447.167,577.667 446.5,577 C442.764,573.187 439.264,569.187 436,565 C435.135,563.917 434.135,563.751 433,564.5 C418.534,577.972 403.201,590.305 387,601.5 C386,602.167 385,602.167 384,601.5 C400.592,588.245 416.592,574.245 432,559.5 C426.593,549.851 422.426,539.684 419.5,529 C418.939,528.478 418.272,528.145 417.5,528 C398.904,549.271 380.238,570.604 361.5,592 C354.636,599.198 347.47,606.032 340,612.5 C338.333,613.167 336.667,613.167 335,612.5 C309.167,588 284,562.833 259.5,537 C255.386,549.904 248.719,561.237 239.5,571 C238.833,571.667 238.833,572.333 239.5,573 C260.066,586.562 280.9,599.729 302,612.5 C272.528,611.79 245.361,602.956 220.5,586 C211.441,591.688 201.607,594.522 191,594.5 C197.74,589.801 204.073,584.635 210,579 C208.626,577.789 207.126,576.789 205.5,576 C192.093,583.881 177.759,586.881 162.5,585 C140.959,618.271 125.625,654.271 116.5,693 C115.146,733.09 116.48,773.09 120.5,813 C125.945,871.557 133.111,929.89 142,988 L0,988 C5.646,876.828 20.146,766.828 43.5,658 C49.689,628.058 62.023,601.058 80.5,577 C103.079,553.457 130.579,538.957 163,533.5 C125.249,508.918 113.749,475.085 128.5,432 C135.632,408.938 142.965,385.938 150.5,363 C158.385,322.127 169.385,282.127 183.5,243 C187.183,233.788 191.35,224.788 196,216 C173.018,204.702 163.851,186.369 168.5,161 C169.519,157.103 171.019,153.436 173,150 C176.526,144.961 180.526,140.294 185,136 C193.565,129.142 203.398,125.476 214.5,125 Z M272,462 C272.054,472.026 271.554,482.026 270.5,492 C268.574,504.703 265.574,517.036 261.5,529 C285.77,556.605 311.437,582.938 338.5,608 C363.302,582.372 386.802,555.705 409,528 C406.973,525.279 405.473,522.279 404.5,519 C401.505,505.183 400.172,491.183 400.5,477 C395.954,481.214 391.121,485.047 386,488.5 C363.927,503.115 340.927,504.782 317,493.5 C300.737,484.727 285.737,474.227 272,462 Z M324,133.5 C269.441,144.101 228.274,173.268 200.5,221 C182.076,261.205 169.409,302.205 162.5,344 C173.88,317.567 187.047,292.234 202,268 C187.999,294.668 174.499,321.668 161.5,349 C151.096,381.546 141.096,414.213 131.5,447 C124.72,485.441 138.72,513.441 173.5,531 C175.07,525.447 175.403,519.781 174.5,514 C170.578,507.158 166.912,500.158 163.5,493 C156.495,472.53 154.162,451.53 156.5,430 C155.047,455.51 160.213,479.51 172,502 C172.667,503.333 173.333,503.333 174,502 C156.565,391.398 191.898,302.231 280,234.5 C349.886,186.738 409.72,196.905 459.5,265 C490.298,309.384 507.632,358.718 511.5,413 C513.846,434.41 511.013,455.077 503,475 C502.498,476.021 501.832,476.188 501,475.5 C504.173,468.312 506.34,460.812 507.5,453 C509.929,420.995 506.262,389.661 496.5,359 C496.122,371.017 495.456,383.017 494.5,395 C491.366,415.941 488.699,436.941 486.5,458 C484.93,480.255 489.263,501.255 499.5,521 C515.244,503.828 523.577,483.495 524.5,460 C523.317,393.716 514.65,328.383 498.5,264 C493.849,246.036 487.516,228.702 479.5,212 C444.767,152.549 392.934,126.382 324,133.5 Z M373,214 C345.61,244.238 314.277,269.405 279,289.5 C289.013,288.532 299.013,288.865 309,290.5 C312.549,291.274 315.882,292.607 319,294.5 C320.333,295.5 320.333,296.5 319,297.5 C298.503,293.881 278.837,296.381 260,305 C259.797,303.11 260.463,301.61 262,300.5 C253.548,303.383 245.214,306.883 237,311 C233.112,322.492 231.112,334.325 231,346.5 C232.229,364.982 235.396,383.149 240.5,401 C244.031,414.06 249.698,426.06 257.5,437 C274.695,456.149 294.195,472.315 316,485.5 C326.128,491.098 336.961,494.265 348.5,495 C359.777,493.908 370.277,490.408 380,484.5 C403.124,469.043 422.624,449.876 438.5,427 C456.699,388.207 463.366,347.541 458.5,305 L393.5,218 L392,216.5 C385.667,215.584 379.334,214.75 373,214 Z" id="Combined-Shape" fill="#191913"></path>
            <path d="M477,339 C478.644,338.786 480.144,339.12 481.5,340 C483.133,344.197 484.3,348.531 485,353 C482.511,369.481 475.178,383.315 463,394.5 C460.85,396.09 458.517,396.757 456,396.5 C459.337,385.154 462.171,373.654 464.5,362 C466.312,359.22 468.479,356.72 471,354.5 C473.543,354.36 475.877,353.694 478,352.5 C477.333,351.833 476.667,351.167 476,350.5 C473.505,350.343 471.172,350.176 469,350 C470.942,345.772 473.609,342.106 477,339 Z" id="Path" fill="#F8F6F2"></path>
            <path d="M331,453 C337.615,454.102 344.282,454.769 351,455 C355.802,455.142 360.469,454.476 365,453 C366.254,454.759 365.921,456.259 364,457.5 C352.96,461.035 342.127,460.535 331.5,456 C331.017,455.052 330.851,454.052 331,453 Z" id="Path" fill="#151411"></path>
            <path d="M292,411 C295.082,412.227 298.082,413.727 301,415.5 C309.283,416.91 317.617,417.91 326,418.5 C348.361,419.396 370.694,419.063 393,417.5 C395.409,416.752 397.575,415.585 399.5,414 C400.78,414.113 401.613,414.78 402,416 C391.545,424.617 381.211,433.45 371,442.5 C354.674,450.252 338.674,449.585 323,440.5 C314.751,434.922 307.084,428.588 300,421.5 C297.551,420.775 295.217,419.775 293,418.5 C290.785,416.258 290.452,413.758 292,411 Z" id="Path" fill="#191814"></path>
            <path d="M315,424 C315.06,423.457 315.393,423.124 316,423 C322.91,424.417 329.91,425.25 337,425.5 C351.667,425.833 366.333,426.167 381,426.5 C363.23,443.259 343.896,445.259 323,432.5 C319.524,430.343 316.857,427.51 315,424 Z" id="Path" fill="#FAF7F3"></path>
            <path d="M339,393 C341.726,392.764 344.059,393.597 346,395.5 C347.038,400.078 345.371,401.078 341,398.5 C338.418,397.162 337.751,395.329 339,393 Z" id="Path" fill="#11110D"></path>
            <path d="M357,336 C358.333,336 359.667,336 361,336 C360.026,341.972 359.859,347.972 360.5,354 C364.288,364.066 368.455,373.9 373,383.5 C370.746,392.915 364.746,398.415 355,400 C353.568,399.767 353.068,399.1 353.5,398 C356.064,395.773 358.897,393.939 362,392.5 C365.298,390.036 367.632,386.87 369,383 C364.402,376.139 360.568,368.806 357.5,361 C354.576,352.657 354.409,344.324 357,336 Z" id="Path" fill="#171613"></path>
            <path d="M218,344 C221.857,349.047 224.69,354.714 226.5,361 C228.561,371.699 230.727,382.366 233,393 C232.5,393.333 232,393.667 231.5,394 C217.513,389.346 208.18,380.013 203.5,366 C199.002,354.264 199.002,342.598 203.5,331 C206.147,330.036 208.647,330.536 211,332.5 C213.984,335.973 216.317,339.806 218,344 Z" id="Path" fill="#F7F5F1"></path>
            <path d="M218,344 C219.384,346.808 220.051,349.808 220,353 C219.204,357.657 219.037,362.324 219.5,367 C220.531,370.039 222.365,372.539 225,374.5 C224.475,375.192 223.808,375.692 223,376 C219.275,374.443 216.775,371.776 215.5,368 C215.225,361.651 215.225,355.318 215.5,349 C214.544,347.606 213.211,346.939 211.5,347 C209.675,347.443 207.842,347.777 206,348 C206.41,343.94 208.744,341.94 213,342 C214.8,342.402 216.467,343.069 218,344 Z" id="Path" fill="#141411"></path>
            <path d="M401,322 C412.367,320.295 421.867,323.628 429.5,332 C431.414,334.798 432.414,337.798 432.5,341 C431.782,341.951 430.949,342.117 430,341.5 C426.811,336.811 422.811,332.977 418,330 C417.972,333.497 417.806,337.164 417.5,341 C415.494,351.081 409.66,354.581 400,351.5 C395.383,345.756 393.883,339.256 395.5,332 C393.018,335.449 390.185,338.616 387,341.5 C386.052,341.983 385.052,342.149 384,342 C386.079,332.256 391.746,325.59 401,322 Z" id="Path" fill="#191813"></path>
            <path d="M286,319 C298.871,316.514 307.704,321.18 312.5,333 C313.308,335.079 313.141,337.079 312,339 C308.953,336.582 306.62,333.582 305,330 C304.498,328.979 303.832,328.812 303,329.5 C306.593,340.821 302.76,347.988 291.5,351 C286.957,350.126 283.957,347.46 282.5,343 C281.682,340.393 281.182,337.726 281,335 C281.439,331.895 281.939,328.895 282.5,326 C277.381,328.785 273.214,332.618 270,337.5 C268.707,337.99 267.373,338.157 266,338 C266.367,332.769 268.7,328.602 273,325.5 C277.147,322.76 281.48,320.593 286,319 Z" id="Path" fill="#1A1914"></path>
            <path d="M396,289 C407.507,288.522 418.841,289.689 430,292.5 C436.084,294.627 441.251,298.127 445.5,303 C446.117,303.949 445.951,304.782 445,305.5 C435.038,301.854 424.705,299.188 414,297.5 C402.929,296.67 391.929,297.17 381,299 C380.797,297.11 381.463,295.61 383,294.5 C387.241,292.151 391.575,290.318 396,289 Z" id="Path" fill="#191814"></path>
            <path d="M204,265 C204.073,266.527 203.406,267.527 202,268 C201.927,266.473 202.594,265.473 204,265 Z" id="Path" fill="#11110F"></path>
            <path d="M207,260 C206.75,262.174 205.75,263.841 204,265 C204.25,262.826 205.25,261.159 207,260 Z" id="Path" fill="#1F1E1C"></path>
            <path d="M207,260 C207.185,258.304 208.019,256.971 209.5,256 C209.779,257.912 208.946,259.246 207,260 Z" id="Path" fill="#40403D"></path>
            <path d="M351,170 C359.473,169.098 367.473,170.598 375,174.5 C384.136,184.605 381.803,190.938 368,193.5 C360,194.167 352,194.167 344,193.5 C337.656,193.179 333.323,190.179 331,184.5 C331.493,181.681 332.66,179.181 334.5,177 C339.665,173.662 345.165,171.329 351,170 Z" id="Path" fill="#1A1914"></path>
            <path d="M304,152 C322.619,151.077 327.119,158.411 317.5,174 C302.16,189.015 284.16,199.348 263.5,205 C253.766,205.265 249.766,200.598 251.5,191 C253.334,185.838 256.001,181.172 259.5,177 C271.832,164.087 286.666,155.754 304,152 Z" id="Path" fill="#191913"></path>
            <path d="M390,151 C415.509,154.183 434.343,167.183 446.5,190 C448.728,202.99 443.562,207.157 431,202.5 C414.286,193.886 399.453,182.72 386.5,169 C382.543,164.496 381.543,159.496 383.5,154 C385.666,152.769 387.833,151.769 390,151 Z" id="Path" fill="#1A1913"></path>
            <path d="M224,554 C222.698,561.62 219.364,568.62 214,575 C213.498,576.021 212.832,576.188 212,575.5 C210.245,574.78 209.411,573.613 209.5,572 C215.709,566.973 220.542,560.973 224,554 Z" id="Path" fill="#EBEAE7"></path>
            <path d="M165,570 C165.739,569.869 166.406,570.036 167,570.5 C163.214,574.731 158.547,576.731 153,576.5 C157.51,575.082 161.51,572.915 165,570 Z" id="Path" fill="#F2F2EF"></path>
            <path d="M500,569 C504.269,573.767 509.269,577.6 515,580.5 C512.483,580.757 510.15,580.09 508,578.5 C504.733,575.774 502.066,572.608 500,569 Z" id="Path" fill="#E4E3E0"></path>
            <path d="M236,575 C254.34,587.507 273.34,599.007 293,609.5 C268.579,605.794 245.913,597.294 225,584 C229.001,581.325 232.668,578.325 236,575 Z" id="Path" fill="#F7F5F1"></path>
            <path d="M966,572 C985.48,572.161 998.32,581.494 1004.5,600 C1006.62,612.981 1002.78,623.814 993,632.5 C991.18,633.283 989.85,632.783 989,631 C1000.76,617.845 1001.93,603.845 992.5,589 C982.66,579 971.16,576.5 958,581.5 C949.89,585.542 945.06,592.042 943.5,601 C942.17,602.333 940.83,602.333 939.5,601 C939.04,590.755 943.21,582.921 952,577.5 C956.66,575.342 961.33,573.509 966,572 Z" id="Path" fill="#191814"></path>
            <path d="M826,79 C831.415,82.508 833.415,87.508 832,94 C826.842,100.918 819.842,104.751 811,105.5 C798.159,108.429 785.825,107.095 774,101.5 C766.781,93.224 767.781,85.891 777,79.5 C793.279,72.368 809.612,72.202 826,79 Z" id="Path" fill="#1A1914"></path>
            <path d="M865,57 C874.68,56.9229 882.18,60.9229 887.5,69 C888.63,75.216 885.96,78.55 879.5,79 C870.497,76.594 863.664,71.428 859,63.5 C859.864,60.1403 861.864,57.9737 865,57 Z" id="Path" fill="#191913"></path>
            <path d="M93,609 C94.511,610.976 95.344,613.309 95.5,616 C100.986,646.558 105.319,677.225 108.5,708 C105.966,698.468 103.966,688.801 102.5,679 C99.553,655.627 96.386,632.294 93,609 Z" id="Path" fill="#E8E7E5"></path>
            <path d="M562,617 C562.647,617.774 562.98,618.774 563,620 C557.83,651.382 552.997,682.715 548.5,714 C547.835,705.964 548.169,697.964 549.5,690 C553.249,665.589 557.416,641.255 562,617 Z" id="Path" fill="#E6E6E4"></path>
            <path d="M929,684 C935.84,682.666 940.34,685.332 942.5,692 C944.45,699.955 942.62,706.789 937,712.5 C930.26,714.214 926.09,711.714 924.5,705 C922.59,699.678 922.59,694.345 924.5,689 C925.52,686.813 927.02,685.146 929,684 Z" id="Path" fill="#191813"></path>
            <path d="M701,574 C717.452,572.802 729.285,579.468 736.5,594 C736.997,596.646 737.164,599.313 737,602 C735.667,602 734.333,602 733,602 C728.283,586.132 717.617,578.966 701,580.5 C683.082,586.836 675.916,599.336 679.5,618 C681.826,625.491 686.659,630.491 694,633 C694.929,634.189 695.262,635.522 695,637 C682.42,636.263 674.92,629.596 672.5,617 C670.31,594.724 679.81,580.391 701,574 Z" id="Path" fill="#191813"></path>
            <path d="M697,129 C698.073,129.751 698.24,130.751 697.5,132 C685.766,157.463 674.599,183.13 664,209 C663.667,208.667 663.333,208.333 663,208 C665.534,199.566 668.367,191.233 671.5,183 C679.209,164.585 687.709,146.585 697,129 Z" id="Path" fill="#141412"></path>
            <path d="M750,73 C744.42,80.461 737.087,83.461 728,82 C726.603,80.681 725.937,79.014 726,77 C727.933,69.894 732.266,64.728 739,61.5 C750.033,59.0218 753.7,62.8552 750,73 Z" id="Path" fill="#191813"></path>
            <path d="M757,685 C760.692,684.471 763.858,685.471 766.5,688 C771.335,696.816 770.835,705.316 765,713.5 C760.501,715.867 756.668,715.033 753.5,711 C747.921,701.224 749.088,692.557 757,685 Z" id="Path" fill="#191914"></path>
            <path d="M840,709 C854.035,707.95 867.368,710.45 880,716.5 C881.85,718.184 883.52,720.017 885,722 C884.5,722.333 884,722.667 883.5,723 C860.049,711.436 836.382,711.103 812.5,722 C810.774,720.852 810.941,719.685 813,718.5 C821.664,714.003 830.664,710.836 840,709 Z" id="Path" fill="#181714"></path>
            <path d="M874,736 C874.33,736 874.67,736 875,736 C888.09,746.698 888.09,757.531 875,768.5 C860.897,774.945 846.23,776.612 831,773.5 C822.879,771.699 816.379,767.533 811.5,761 C806.046,749.075 809.213,740.241 821,734.5 C838.93,728.081 856.596,728.581 874,736 Z" id="Path" fill="#191913"></path>
            <path d="M1215,593 C1230.14,666.166 1242.14,739.833 1251,814 C1253.53,839.932 1254.53,865.932 1254,892 C1251.87,923.229 1247.87,954.229 1242,985 C1245.82,956.421 1248.99,927.754 1251.5,899 C1251.68,889.756 1252.18,880.589 1253,871.5 C1252.32,862.364 1251.65,853.197 1251,844 C1251.21,843.414 1251.54,842.914 1252,842.5 C1247.21,793.177 1240.71,745.01 1232.5,698 C1231.85,699.196 1231.35,699.196 1231,698 C1231.55,696.728 1231.88,695.394 1232,694 C1227.49,664.97 1222.33,635.97 1216.5,607 C1216,606.5 1215.5,606 1215,605.5 C1215.4,601.442 1215.4,597.275 1215,593 Z" id="Path" fill="#ECECEA"></path>
            <path d="M1102,988 C1100.33,988 1098.67,988 1097,988 C1101.93,894.372 1106.1,800.706 1109.5,707 C1112.04,661.115 1116.71,615.449 1123.5,570 C1121.86,602.379 1119.86,634.712 1117.5,667 C1125.68,635.273 1134.35,603.606 1143.5,572 C1147.53,560.251 1152.53,548.918 1158.5,538 C1160.86,533.933 1163.69,530.267 1167,527 C1167.33,527.333 1167.67,527.667 1168,528 C1158.31,544.712 1150.81,562.378 1145.5,581 C1135.36,618.543 1125.7,656.21 1116.5,694 C1114.14,732.641 1112.8,771.308 1112.5,810 C1123.84,775.322 1135.17,740.656 1146.5,706 C1156.39,674.772 1164.56,643.106 1171,611 C1171.33,611.833 1171.67,612.667 1172,613.5 C1170.23,625.07 1168.07,636.57 1165.5,648 C1150.75,708.65 1132.75,768.317 1111.5,827 C1109.47,859.334 1107.8,891.668 1106.5,924 C1127.23,888.256 1147.57,852.256 1167.5,816 C1167.67,816.667 1167.83,817.333 1168,818 C1162.66,831.688 1156.49,845.021 1149.5,858 C1134.33,883.676 1119.66,909.676 1105.5,936 C1104.21,953.332 1103.04,970.67 1102,988 Z" id="Path" fill="#181713"></path>
            <path d="M911,853 C903.21,861.404 893.87,867.57 883,871.5 C844.835,880.5 817.335,867.333 800.5,832 C796.916,824.079 799.416,821.079 808,823 C846.827,832.147 884.16,827.647 920,809.5 C923.96,808.782 926.29,810.449 927,814.5 C924.51,828.633 919.18,841.466 911,853 Z" id="Path" fill="#191813"></path>
            <path d="M756,853 C755.291,853.904 754.291,854.237 753,854 C747.046,847.768 742.88,840.435 740.5,832 C733.256,807.836 736.256,785.17 749.5,764 C750.61,762.463 752.11,761.797 754,762 C751.186,768.968 748.353,775.968 745.5,783 C743.068,794.544 742.402,806.211 743.5,818 C745.98,830.288 750.147,841.955 756,853 Z" id="Path" fill="#191814"></path>
            <path d="M1254,892 C1254.53,865.932 1253.53,839.932 1251,814 C1250.84,812.627 1251.01,811.293 1251.5,810 C1255.26,839.587 1256.26,869.253 1254.5,899 C1254,896.69 1253.84,894.357 1254,892 Z" id="Path" fill="#040402"></path>
            <path d="M71,717 C77.05,748.874 84.55,780.54 93.5,812 C101.784,838.53 111.117,864.53 121.5,890 C109.296,867.062 99.629,843.062 92.5,818 C82.638,784.888 75.471,751.222 71,717 Z" id="Path" fill="#E9E9E7"></path>
            <path d="M864,843 C875.38,842.008 886.38,843.508 897,847.5 C903.82,849.428 904.49,852.428 899,856.5 C876.86,871.758 854.024,872.925 830.5,860 C831.448,856.699 833.615,854.199 837,852.5 C845.53,847.629 854.53,844.462 864,843 Z" id="Path" fill="#FAF7F3"></path>
            <path d="M566,819 C558.253,852.429 548.087,885.429 535.5,918 C532.019,925.456 528.352,932.789 524.5,940 C539.597,900.212 553.43,859.879 566,819 Z" id="Path" fill="#EAEAE8"></path>
            <path d="M70,897 C88.2,919.037 108.033,939.704 129.5,959 C107.644,943.814 88.311,924.48 71.5,901 C70.709,899.755 70.209,898.422 70,897 Z" id="Path" fill="#EFEFED"></path>
            <path d="M281,823 C319.697,838.933 358.363,838.933 397,823 C400,822.667 401.333,824 401,827 C396.51,857.987 379.176,877.487 349,885.5 C322.884,887.92 302.05,878.753 286.5,858 C280.532,848.108 277.866,837.442 278.5,826 C279.545,825.127 280.378,824.127 281,823 Z" id="Path" fill="#191813"></path>
            <path d="M320,854 C334.143,853.795 347.477,856.962 360,863.5 C363.171,865.841 366.171,868.341 369,871 C362.193,875.883 354.527,878.717 346,879.5 C327.143,882.389 311.81,876.555 300,862 C301.279,860.354 302.945,859.187 305,858.5 C310.077,856.82 315.077,855.32 320,854 Z" id="Path" fill="#F9F7F2"></path>
            <path d="M337,755 C344.008,754.834 351.008,755 358,755.5 C373.307,758.614 377.474,767.114 370.5,781 C357.167,794.741 342.334,796.574 326,786.5 C320.291,781.586 317.458,775.42 317.49954,768 C321.621,760.028 328.121,755.694 337,755 Z" id="Path" fill="#191813"></path>
            <path d="M415,661 C452.035,658.871 478.535,674.538 494.5,708 C503.597,727.739 504.264,747.739 496.5,768 C483.456,788.033 464.956,795.867 441,791.5 C406.429,782.595 384.929,760.762 376.5,726 C371.451,693.396 384.284,671.729 415,661 Z" id="Path" fill="#191913"></path>
            <path d="M413,709 C425.737,708.548 433.904,714.548 437.5,727 C440.42,738.307 436.92,746.807 427,752.5 C412.979,752.835 404.479,746.001 401.5,732 C400.576,721.848 404.409,714.181 413,709 Z" id="Path" fill="#F7F5F2"></path>
            <path d="M413,718 C425.184,719.026 430.684,725.693 429.5,738 C427.344,747.328 421.844,750.161 413,746.5 C405.693,739.416 404.193,731.249 408.5,722 C409.897,720.43 411.397,719.096 413,718 Z" id="Path" fill="#1A1914"></path>
            <path d="M244,659 C277.691,656.213 298.191,671.213 305.5,704 C306.149,746.89 286.982,777.057 248,794.5 C232.953,800.254 217.62,801.254 202,797.5 C179.832,789.311 168.499,773.311 168,749.5 C170.943,712.928 188.276,685.595 220,667.5 C227.791,663.739 235.791,660.905 244,659 Z" id="Path" fill="#191913"></path>
            <path d="M262,709 C271.774,709.135 278.274,713.801 281.5,723 C282.929,736.98 277.429,747.146 265,753.5 C255.909,755.537 249.409,752.371 245.5,744 C241.891,727.89 247.391,716.223 262,709 Z" id="Path" fill="#F8F6F2"></path>
            <path d="M264,719 C272.612,718.945 276.945,723.278 277,732 C277.102,741.827 272.435,747.827 263,750 C255.79,748.285 252.456,743.618 253,736 C253.072,727.942 256.739,722.275 264,719 Z" id="Path" fill="#191813"></path>
            <path d="M1195,913 C1201.66,912.465 1207.99,913.632 1214,916.5 C1216.49,919.127 1216.65,921.96 1214.5,925 C1190.93,943.871 1164.77,958.204 1136,968 C1135.33,967.67 1134.67,967.33 1134,967 C1160.03,955.489 1184.69,941.656 1208,925.5 C1209.67,923.833 1211.33,922.167 1213,920.5 C1201.28,917.071 1189.61,917.404 1178,921.5 C1157.65,929.509 1137.65,938.342 1118,948 C1117.67,947.667 1117.33,947.333 1117,947 C1134.67,935.665 1153.33,926.165 1173,918.5 C1180.39,916.32 1187.72,914.487 1195,913 Z" id="Path" fill="#171714"></path>
        </g>
    </g>
</svg>