<?xml version="1.0" encoding="UTF-8"?>
<svg width="1076px" height="697px" viewBox="0 0 1076 697" version="1.1" xmlns="http://www.w3.org/2000/svg" xmlns:xlink="http://www.w3.org/1999/xlink">
    <title>asdsa</title>
    <g id="Page-1" stroke="none" stroke-width="1" fill="none" fill-rule="evenodd">
        <g id="asdsa" transform="translate(0.1898, 0.5512)">
            <path d="M655.810206,6.94882644 C656.477206,11.2818264 656.477206,15.6158264 655.810206,19.9488264 C652.074206,29.8228264 648.741206,39.8228264 645.810206,49.9488264 C639.858206,72.9608264 634.025206,95.9608264 628.310206,118.948826 C626.886206,120.963826 626.220206,123.296826 626.310206,125.948826 C624.173206,130.409826 622.839206,135.076826 622.310206,139.948826 C619.939206,143.085826 618.939206,146.752826 619.310206,150.948826 C617.751206,159.301826 616.084206,167.634826 614.310206,175.948826 C612.674206,179.658826 612.008206,183.658826 612.310206,187.948826 C609.898206,198.369826 608.231206,209.036826 607.310206,219.948826 C605.732206,225.031826 605.065206,230.364826 605.310206,235.948826 C604.830206,248.384826 605.497206,260.718826 607.310206,272.948826 C610.315206,273.195826 612.815206,272.195826 614.810206,269.948826 C617.920206,265.384826 620.754206,260.717826 623.310206,255.948826 C624.695206,254.874826 625.861206,253.541826 626.810206,251.948826 C630.263206,243.042826 634.263206,234.375826 638.810206,225.948826 C639.300206,224.655826 639.467206,223.321826 639.310206,221.948826 C643.887206,213.431826 648.387206,204.764826 652.810206,195.948826 C656.445206,174.361826 662.112206,153.361826 669.810206,132.948826 C678.442206,121.426826 687.442206,121.093826 696.810206,131.948826 C697.733206,133.482826 698.233206,135.149826 698.310206,136.948826 C688.378206,163.684826 682.378206,191.351826 680.310206,219.948826 C678.888206,223.687826 678.221206,227.687826 678.310206,231.948826 C678.313206,234.473826 678.647206,236.807826 679.310206,238.948826 C679.706206,243.791826 681.040206,248.291826 683.310206,252.448826 C690.647206,253.935826 695.314206,251.102826 697.310206,243.948826 C701.200206,240.039826 703.867206,235.373826 705.310206,229.948826 C712.068206,214.434826 719.901206,199.434826 728.810206,184.948826 C732.548206,177.478826 735.714206,169.812826 738.310206,161.948826 C740.062206,154.776826 741.395206,147.443826 742.310206,139.948826 C744.087206,136.943826 745.087206,133.610826 745.310206,129.948826 C747.730206,117.814826 755.064206,113.647826 767.310206,117.448826 C771.960206,118.933826 773.960206,122.100826 773.310206,126.948826 C772.580206,136.654826 771.580206,146.320826 770.310206,155.948826 C768.391206,160.305826 767.391206,164.971826 767.310206,169.948826 C766.298206,174.976826 765.465206,179.976826 764.810206,184.948826 C767.261206,178.044826 770.260206,171.378826 773.810206,164.948826 C780.360206,155.150826 786.860206,145.483826 793.310206,135.948826 C804.320206,123.921826 816.980206,114.254826 831.310206,106.948826 C845.130206,105.965826 853.130206,112.132826 855.310206,125.448826 C854.270206,133.923826 853.600206,142.423826 853.310206,150.948826 C851.890206,152.963826 851.220206,155.296826 851.310206,157.948826 C846.230206,178.333826 841.900206,199.000826 838.310206,219.948826 C836.130206,222.829826 835.130206,226.162826 835.310206,229.948826 C835.140206,236.956826 835.310206,243.956826 835.810206,250.948826 C837.170206,251.813826 838.340206,252.813826 839.310206,253.948826 C842.530206,255.632826 845.190206,254.965826 847.310206,251.948826 C847.640206,250.948826 848.310206,250.281826 849.310206,249.948826 C852.710206,247.548826 855.380206,244.548826 857.310206,240.948826 C862.620206,232.997826 867.460206,224.664826 871.810206,215.948826 C874.670206,206.820826 876.670206,197.487826 877.810206,187.948826 C886.820206,157.946826 903.990206,133.779826 929.310206,115.448826 C938.130206,109.673826 947.800206,106.173826 958.310206,104.948826 C962.010206,105.000826 965.670206,105.334826 969.310206,105.948826 C975.780206,107.183826 981.450206,110.017826 986.310206,114.448826 C995.380206,114.871826 1002.54021,118.704826 1007.81021,125.948826 C1008.48021,135.977826 1008.14021,145.977826 1006.81021,155.948826 C1003.10021,183.596826 999.600206,211.263826 996.310206,238.948826 C1011.38021,234.201826 1026.04021,228.368826 1040.31021,221.448826 C1050.56021,217.372826 1060.89021,217.039826 1071.31021,220.448826 C1074.91021,221.782826 1076.08021,224.282826 1074.81021,227.948826 C1072.52021,229.820826 1070.02021,231.320826 1067.31021,232.448826 C1041.01021,239.766826 1015.67021,249.599826 991.310206,261.948826 C989.550206,265.302826 988.550206,268.969826 988.310206,272.948826 C984.730206,286.413826 980.730206,299.747826 976.310206,312.948826 C973.700206,316.080826 972.030206,319.747826 971.310206,323.948826 C959.930206,351.836826 942.270206,375.003826 918.310206,393.448826 C907.850206,401.188826 896.180206,405.188826 883.310206,405.448826 C873.860206,399.387826 867.690206,390.887826 864.810206,379.948826 C863.280206,363.398826 866.780206,348.064826 875.310206,333.948826 C877.620206,330.699826 879.950206,327.366826 882.310206,323.948826 C884.720206,322.537826 886.390206,320.537826 887.310206,317.948826 C889.400206,314.677826 891.730206,311.511826 894.310206,308.448826 C902.270206,301.458826 910.270206,294.458826 918.310206,287.448826 C932.060206,278.703826 945.560206,269.536826 958.810206,259.948826 C962.270206,248.772826 965.100206,237.438826 967.310206,225.948826 C969.780206,216.818826 971.950206,207.485826 973.810206,197.948826 C974.480206,194.948826 974.480206,191.948826 973.810206,188.948826 C972.770206,189.692826 972.270206,190.692826 972.310206,191.948826 C971.640206,191.948826 971.310206,192.281826 971.310206,192.948826 C968.860206,195.077826 967.190206,197.744826 966.310206,200.948826 C963.970206,204.805826 961.800206,208.805826 959.810206,212.948826 C956.740206,216.509826 953.900206,220.176826 951.310206,223.948826 C948.970206,226.114826 946.470206,228.114826 943.810206,229.948826 C943.330206,230.896826 943.160206,231.896826 943.310206,232.948826 C941.790206,232.959826 940.630206,233.625826 939.810206,234.948826 C937.730206,237.513826 935.900206,240.180826 934.310206,242.948826 C927.680206,247.936826 920.680206,252.436826 913.310206,256.448826 C900.140206,260.078826 889.810206,256.244826 882.310206,244.948826 C881.230206,242.536826 880.070206,240.202826 878.810206,237.948826 C874.200206,246.185826 868.870206,253.852826 862.810206,260.948826 C855.770206,266.884826 847.930206,271.384826 839.310206,274.448826 C830.190206,275.740826 823.020206,272.573826 817.810206,264.948826 C806.690206,249.346826 802.690206,232.013826 805.810206,212.948826 C810.890206,183.920826 818.390206,155.920826 828.310206,128.948826 C822.380206,132.710826 816.880206,137.043826 811.810206,141.948826 C794.210206,164.141826 781.040206,188.807826 772.310206,215.948826 C770.270206,217.359826 769.271206,219.359826 769.310206,221.948826 C765.444206,229.879826 762.778206,238.213826 761.310206,246.948826 C759.736206,248.550826 759.069206,250.550826 759.310206,252.948826 C758.509206,254.490826 758.176206,256.156826 758.310206,257.948826 C755.841206,259.055826 754.841206,261.055826 755.310206,263.948826 C754.501206,265.476826 753.834206,267.142826 753.310206,268.948826 C750.643206,270.948826 748.310206,273.281826 746.310206,275.948826 C737.328206,276.806826 731.828206,272.806826 729.810206,263.948826 C728.815206,258.970826 727.982206,253.970826 727.310206,248.948826 C728.084206,238.908826 728.584206,228.908826 728.810206,218.948826 C722.112206,234.679826 714.112206,249.679826 704.810206,263.948826 C695.934206,275.288826 684.434206,279.121826 670.310206,275.448826 C661.599206,269.724826 655.432206,261.890826 651.810206,251.948826 C650.485206,245.666826 649.485206,239.333826 648.810206,232.948826 C643.738206,249.507826 636.738206,265.174826 627.810206,279.948826 C622.788206,286.971826 616.121206,291.638826 607.810206,293.948826 C596.137206,292.912826 588.304206,286.912826 584.310206,275.948826 C583.681206,273.051826 582.681206,270.384826 581.310206,267.948826 C581.485206,265.827826 581.151206,263.827826 580.310206,261.948826 C580.245206,259.020826 579.578206,256.353826 578.310206,253.948826 C578.142206,245.265826 577.642206,236.599826 576.810206,227.948826 C568.819206,243.939826 559.819206,259.272826 549.810206,273.948826 C543.884206,278.662826 538.051206,283.495826 532.310206,288.448826 C523.716206,292.601826 516.050206,291.267826 509.310206,284.448826 C502.693206,277.486826 498.193206,269.319826 495.810206,259.948826 C492.875206,269.616826 488.709206,278.616826 483.310206,286.948826 C479.318206,291.583826 475.318206,296.250826 471.310206,300.948826 C470.424206,301.773826 470.091206,302.773826 470.310206,303.948826 C460.430206,311.051826 451.097206,310.218826 442.310206,301.448826 C439.087206,295.834826 436.254206,290.001826 433.810206,283.948826 C431.971206,267.994826 430.637206,251.994826 429.810206,235.948826 C424.227206,255.960826 414.393206,273.460826 400.310206,288.448826 C394.039206,291.672826 387.539206,294.172826 380.810206,295.948826 C376.993206,295.792826 373.493206,294.626826 370.310206,292.448826 C360.550206,281.761826 354.383206,269.261826 351.810206,254.948826 C342.719206,277.326826 327.552206,294.160826 306.310206,305.448826 C284.212206,311.148826 268.712206,303.315826 259.810206,281.948826 C254.535206,265.827826 253.035206,249.494826 255.310206,232.948826 C256.864206,228.881826 257.530206,224.548826 257.310206,219.948826 C257.491206,212.150826 259.158206,204.817826 262.310206,197.948826 C262.927206,197.837826 263.427206,197.504826 263.810206,196.948826 C265.651206,191.270826 267.484206,185.604826 269.310206,179.948826 C271.077206,177.510826 272.411206,174.843826 273.310206,171.948826 C276.027206,169.539826 278.027206,166.539826 279.310206,162.948826 C289.474206,142.356826 306.140206,132.190826 329.310206,132.448826 C346.513206,136.021826 354.013206,146.521826 351.810206,163.948826 C346.630206,177.148826 341.630206,190.481826 336.810206,203.948826 L327.810206,218.948826 C318.475206,228.519826 308.309206,237.019826 297.310206,244.448826 C293.527206,246.590826 289.861206,246.423826 286.310206,243.948826 C285.186206,245.817826 284.353206,247.817826 283.810206,249.948826 C281.456206,263.235826 283.622206,275.568826 290.310206,286.948826 C290.772206,288.328826 291.772206,288.995826 293.310206,288.948826 C296.694206,288.305826 300.027206,287.471826 303.310206,286.448826 C303.866206,286.065826 304.199206,285.565826 304.310206,284.948826 L305.310206,284.948826 C308.484206,284.438826 310.818206,282.771826 312.310206,279.948826 C322.880206,269.055826 331.880206,257.055826 339.310206,243.948826 C342.275206,241.124826 344.775206,237.791826 346.810206,233.948826 C348.592206,230.816826 349.758206,227.483826 350.310206,223.948826 C351.680206,222.198826 352.680206,220.198826 353.310206,217.948826 C357.428206,202.759826 362.261206,187.759826 367.810206,172.948826 C375.065206,157.032826 385.898206,144.199826 400.310206,134.448826 C415.224206,127.339826 429.224206,128.839826 442.310206,138.948826 C447.094206,123.862826 450.928206,108.529826 453.810206,92.9488264 C461.895206,68.9428264 468.895206,44.6098264 474.810206,19.9488264 C477.187206,16.3608264 479.687206,12.8608264 482.310206,9.44882644 C483.964206,8.84082644 485.631206,8.34082644 487.310206,7.94882644 C490.712206,7.79082644 494.046206,8.12482644 497.310206,8.94882644 C502.473206,12.7748264 505.140206,17.9408264 505.310206,24.4488264 C504.037206,32.7058264 502.370206,40.8728264 500.310206,48.9488264 C496.517206,59.2198264 493.850206,69.8868264 492.310206,80.9488264 C490.893206,84.4508264 490.226206,88.1178264 490.310206,91.9488264 C488.736206,93.5508264 488.069206,95.5508264 488.310206,97.9488264 C484.715206,109.660826 481.715206,121.660826 479.310206,133.948826 C476.131206,138.664826 474.797206,143.997826 475.310206,149.948826 C472.390206,156.956826 470.390206,164.289826 469.310206,171.948826 C465.489206,185.719826 462.822206,199.719826 461.310206,213.948826 C459.838206,218.367826 459.172206,223.034826 459.310206,227.948826 C456.704206,248.618826 456.704206,269.285826 459.310206,289.948826 C462.128206,289.791826 464.128206,288.457826 465.310206,285.948826 C468.282206,283.670826 469.949206,280.670826 470.310206,276.948826 C471.410206,275.843826 472.077206,274.510826 472.310206,272.948826 C475.225206,270.797826 476.892206,267.797826 477.310206,263.948826 C479.483206,257.612826 481.817206,251.278826 484.310206,244.948826 C488.339206,236.554826 492.006206,227.888826 495.310206,218.948826 C499.668206,197.050826 507.502206,176.383826 518.810206,156.948826 C520.476206,154.117826 522.642206,151.784826 525.310206,149.948826 C529.643206,146.281826 533.643206,142.281826 537.310206,137.948826 C543.882206,131.491826 551.882206,127.324826 561.310206,125.448826 C572.338206,123.872826 582.338206,126.372826 591.310206,132.948826 C600.164206,97.8598264 609.997206,62.8598264 620.810206,27.9488264 C623.064206,20.1088264 626.397206,12.7758264 630.810206,5.94882644 C639.579206,-2.30317356 647.912206,-1.97017356 655.810206,6.94882644 Z M423.310206,152.448826 C411.739206,160.060826 403.906206,170.560826 399.810206,183.948826 C392.791206,206.214826 387.624206,228.881826 384.310206,251.948826 C383.986206,258.802826 384.319206,265.469826 385.310206,271.948826 C396.169206,260.237826 405.335206,247.237826 412.810206,232.948826 C422.023206,207.143826 430.523206,181.143826 438.310206,154.948826 C435.909206,154.399826 433.575206,153.566826 431.310206,152.448826 C428.643206,151.781826 425.977206,151.781826 423.310206,152.448826 Z M570.310206,147.448826 C563.445206,150.628826 557.612206,155.128826 552.810206,160.948826 C537.426206,185.731826 528.926206,212.731826 527.310206,241.948826 C526.680206,249.691826 527.347206,257.024826 529.310206,263.948826 C540.508206,253.219826 549.508206,240.886826 556.310206,226.948826 C557.193206,223.744826 558.860206,221.077826 561.310206,218.948826 C566.604206,209.356826 571.104206,199.356826 574.810206,188.948826 C577.872206,175.796826 581.372206,162.796826 585.310206,149.948826 C580.540206,148.009826 575.540206,147.176826 570.310206,147.448826 Z M946.310206,135.448826 C935.910206,145.516826 927.410206,157.016826 920.810206,169.948826 C913.520206,186.843826 907.690206,204.176826 903.310206,221.948826 L903.310206,238.948826 C905.370206,238.931826 907.370206,238.598826 909.310206,237.948826 C913.940206,234.292826 918.600206,230.626826 923.310206,226.948826 C937.830206,211.579826 950.170206,194.579826 960.310206,175.948826 C961.820206,171.599826 963.820206,167.599826 966.310206,163.948826 C969.040206,159.502826 971.540206,154.835826 973.810206,149.948826 C975.180206,145.135826 976.840206,140.469826 978.810206,135.948826 C979.620206,133.869826 979.450206,131.869826 978.310206,129.948826 C966.960206,127.090826 956.290206,128.923826 946.310206,135.448826 Z M329.310206,153.948826 L326.310206,153.948826 C316.044206,159.713826 307.877206,167.713826 301.810206,177.948826 C298.328206,187.531826 294.995206,197.198826 291.810206,206.948826 C290.626206,212.610826 289.959206,218.276826 289.810206,223.948826 C298.260206,216.504826 305.593206,208.171826 311.810206,198.948826 C316.658206,189.917826 321.491206,180.917826 326.310206,171.948826 C326.220206,169.296826 326.886206,166.963826 328.310206,164.948826 L329.310206,158.948826 L329.310206,153.948826 Z" id="Combined-Shape" fill="#080909"></path>
            <path d="M487.310206,7.94882644 C490.114206,6.81082644 493.114206,6.64382644 496.310206,7.44882644 C496.866206,7.83182644 497.199206,8.33182644 497.310206,8.94882644 C494.046206,8.12482644 490.712206,7.79082644 487.310206,7.94882644 Z" id="Path" fill="#7F7F7F"></path>
            <path d="M688.310206,87.9488264 C688.162206,83.1298264 688.828206,78.4638264 690.310206,73.9488264 C692.324206,69.0918264 694.991206,64.5918264 698.310206,60.4488264 C712.091206,58.8968264 718.258206,65.0628264 716.810206,78.9488264 C715.354206,93.4538264 707.854206,98.6208264 694.310206,94.4488264 C691.465206,92.9038264 689.465206,90.7368264 688.310206,87.9488264 Z" id="Path" fill="#090A0A"></path>
            <path d="M500.310206,48.9488264 C498.878206,56.6068264 497.378206,64.2738264 495.810206,71.9488264 C494.949206,75.1798264 493.782206,78.1798264 492.310206,80.9488264 C493.850206,69.8868264 496.517206,59.2198264 500.310206,48.9488264 Z" id="Path" fill="#7D7D7D"></path>
            <path d="M49.3102063,70.9488264 C45.8402063,72.2238264 42.5072063,73.8908264 39.3102063,75.9488264 C39.3492063,74.8658264 39.6832063,73.8658264 40.3102063,72.9488264 C43.2012063,71.7708264 46.2012063,71.1038264 49.3102063,70.9488264 Z" id="Path" fill="#A9A9A9"></path>
            <path d="M690.310206,73.9488264 C688.828206,78.4638264 688.162206,83.1298264 688.310206,87.9488264 C686.713206,83.0008264 687.379206,78.3348264 690.310206,73.9488264 Z" id="Path" fill="#616161"></path>
            <path d="M490.310206,91.9488264 C490.551206,94.3468264 489.884206,96.3468264 488.310206,97.9488264 C488.069206,95.5508264 488.736206,93.5508264 490.310206,91.9488264 Z" id="Path" fill="#959796"></path>
            <path d="M620.310206,67.9488264 C620.966206,69.0708264 621.299206,70.4038264 621.310206,71.9488264 C619.632206,80.3408264 617.632206,88.6738264 615.310206,96.9488264 C614.942206,98.3588264 614.109206,99.3588264 612.810206,99.9488264 C608.939206,113.227826 605.272206,126.561826 601.810206,139.948826 C601.686206,134.554826 602.353206,129.221826 603.810206,123.948826 C609.424206,105.278826 614.924206,86.6118264 620.310206,67.9488264 Z" id="Path" fill="#282929"></path>
            <path d="M958.310206,104.948826 C962.100206,103.546826 965.770206,103.879826 969.310206,105.948826 C965.670206,105.334826 962.010206,105.000826 958.310206,104.948826 Z" id="Path" fill="#9E9E9E"></path>
            <path d="M456.310206,139.948826 C456.374206,136.228826 456.874206,132.562826 457.810206,128.948826 C462.108206,111.586826 466.775206,94.2538264 471.810206,76.9488264 C470.417206,84.4988264 469.417206,92.1658264 468.810206,99.9488264 C464.445206,113.334826 460.278206,126.667826 456.310206,139.948826 Z" id="Path" fill="#4B4C4C"></path>
            <path d="M831.310206,106.948826 C816.980206,114.254826 804.320206,123.921826 793.310206,135.948826 C802.060206,123.402826 813.390206,113.902826 827.310206,107.448826 C828.600206,106.958826 829.940206,106.791826 831.310206,106.948826 Z" id="Path" fill="#747474"></path>
            <path d="M628.310206,118.948826 C628.400206,121.600826 627.734206,123.933826 626.310206,125.948826 C626.220206,123.296826 626.886206,120.963826 628.310206,118.948826 Z" id="Path" fill="#959595"></path>
            <path d="M745.310206,129.948826 C745.087206,133.610826 744.087206,136.943826 742.310206,139.948826 C742.533206,136.286826 743.533206,132.953826 745.310206,129.948826 Z" id="Path" fill="#5A5A5A"></path>
            <path d="M626.310206,125.948826 C625.785206,130.459826 625.118206,134.959826 624.310206,139.448826 C624.126206,140.824826 623.459206,141.657826 622.310206,141.948826 C622.310206,141.281826 622.310206,140.615826 622.310206,139.948826 C622.839206,135.076826 624.173206,130.409826 626.310206,125.948826 Z" id="Path" fill="#B2B2B2"></path>
            <path d="M537.310206,137.948826 C533.643206,142.281826 529.643206,146.281826 525.310206,149.948826 C528.310206,144.948826 532.310206,140.948826 537.310206,137.948826 Z" id="Path" fill="#6A6A6A"></path>
            <path d="M479.310206,133.948826 C478.578206,139.542826 477.245206,144.875826 475.310206,149.948826 C474.797206,143.997826 476.131206,138.664826 479.310206,133.948826 Z" id="Path" fill="#9D9D9D"></path>
            <path d="M622.310206,139.948826 C622.310206,140.615826 622.310206,141.281826 622.310206,141.948826 C621.877206,144.614826 621.377206,147.280826 620.810206,149.948826 C620.427206,150.504826 619.927206,150.837826 619.310206,150.948826 C618.939206,146.752826 619.939206,143.085826 622.310206,139.948826 Z" id="Path" fill="#404040"></path>
            <path d="M742.310206,139.948826 C741.395206,147.443826 740.062206,154.776826 738.310206,161.948826 C738.254206,154.239826 739.587206,146.906826 742.310206,139.948826 Z" id="Path" fill="#7B7B7B"></path>
            <path d="M326.310206,153.948826 C327.378206,153.014826 328.711206,152.680826 330.310206,152.948826 C330.605206,155.183826 330.271206,157.183826 329.310206,158.948826 C329.310206,157.281826 329.310206,155.615826 329.310206,153.948826 C328.310206,153.948826 327.310206,153.948826 326.310206,153.948826 Z" id="Path" fill="#8E8F90"></path>
            <path d="M853.310206,150.948826 C853.400206,153.600826 852.730206,155.933826 851.310206,157.948826 C851.220206,155.296826 851.890206,152.963826 853.310206,150.948826 Z" id="Path" fill="#9C9C9C"></path>
            <path d="M475.310206,149.948826 C474.209206,157.698826 472.209206,165.032826 469.310206,171.948826 C470.390206,164.289826 472.390206,156.956826 475.310206,149.948826 Z" id="Path" fill="#808181"></path>
            <path d="M770.310206,155.948826 C770.770206,161.055826 769.766206,165.722826 767.310206,169.948826 C767.391206,164.971826 768.391206,160.305826 770.310206,155.948826 Z" id="Path" fill="#606060"></path>
            <path d="M2.31020629,291.948826 C1.99720629,287.095826 1.33120629,282.428826 0.310206292,277.948826 C-1.99079371,212.644826 8.50920629,149.644826 31.8102063,88.9488264 C34.0422063,84.3688264 36.5422063,80.0348264 39.3102063,75.9488264 C42.5072063,73.8908264 45.8402063,72.2238264 49.3102063,70.9488264 C59.7162063,69.3368264 65.7162063,73.8368264 67.3102063,84.4488264 C58.5282063,109.464826 51.3622063,134.964826 45.8102063,160.948826 C43.0702063,177.981826 40.0702063,194.981826 36.8102063,211.948826 C35.2512063,235.923826 34.9182063,259.923826 35.8102063,283.948826 C36.7892063,291.336826 37.9552063,298.670826 39.3102063,305.948826 C39.3382063,309.364826 40.3382063,312.364826 42.3102063,314.948826 C43.5602063,318.963826 45.8932063,322.129826 49.3102063,324.448826 C52.8352063,325.106826 55.6692063,323.939826 57.8102063,320.948826 C62.1432063,314.948826 66.4772063,308.948826 70.8102063,302.948826 C76.7702063,288.544826 82.6042063,274.210826 88.3102063,259.948826 C91.6932063,257.159826 93.3602063,253.493826 93.3102063,248.948826 C102.471206,223.631826 110.971206,197.965826 118.810206,171.948826 C121.020206,161.232826 123.353206,150.565826 125.810206,139.948826 C131.129206,134.281826 137.629206,132.447826 145.310206,134.448826 C154.865206,138.382826 159.198206,145.548826 158.310206,155.948826 C157.403206,158.105826 156.737206,160.438826 156.310206,162.948826 C154.806206,175.651826 152.973206,188.318826 150.810206,200.948826 C148.803206,219.894826 147.637206,238.894826 147.310206,257.948826 C146.625206,274.811826 149.125206,291.145826 154.810206,306.948826 C156.562206,308.799826 158.062206,310.799826 159.310206,312.948826 C163.355206,315.667826 167.355206,315.333826 171.310206,311.948826 C173.415206,309.856826 175.082206,307.523826 176.310206,304.948826 C210.670206,246.844826 229.337206,183.844826 232.310206,115.948826 C232.139206,99.8738264 230.972206,83.8738264 228.810206,67.9488264 C225.906206,57.7468264 223.740206,47.4128264 222.310206,36.9488264 C220.114206,36.8838264 218.114206,36.2168264 216.310206,34.9488264 C223.309206,31.8738264 229.976206,32.3738264 236.310206,36.4488264 C242.974206,42.6048264 247.474206,50.1048264 249.810206,58.9488264 C253.222206,73.2548264 255.056206,87.7548264 255.310206,102.448826 C254.751206,137.638826 249.584206,172.138826 239.810206,205.948826 C231.822206,236.916826 220.488206,266.583826 205.810206,294.948826 C200.810206,301.948826 195.810206,308.948826 190.810206,315.948826 C179.646206,328.282826 165.813206,334.782826 149.310206,335.448826 C134.139206,328.283826 123.973206,316.783826 118.810206,300.948826 C115.201206,285.834826 112.867206,270.501826 111.810206,254.948826 C106.094206,268.088826 100.761206,281.422826 95.8102063,294.948826 C88.8342063,311.404826 79.0012063,325.904826 66.3102063,338.448826 C57.0672063,345.105826 46.7342063,348.105826 35.3102063,347.448826 C27.3162063,343.794826 20.8162063,338.294826 15.8102063,330.948826 C8.83120629,318.845826 4.33120629,305.845826 2.31020629,291.948826 Z" id="Path" fill="#080909"></path>
            <path d="M158.310206,155.948826 C158.472206,157.975826 158.305206,159.975826 157.810206,161.948826 C157.427206,162.504826 156.927206,162.837826 156.310206,162.948826 C156.737206,160.438826 157.403206,158.105826 158.310206,155.948826 Z" id="Path" fill="#5E5E5E"></path>
            <path d="M279.310206,162.948826 C278.027206,166.539826 276.027206,169.539826 273.310206,171.948826 C274.087206,168.040826 276.087206,165.040826 279.310206,162.948826 Z" id="Path" fill="#3F3F3F"></path>
            <path d="M328.310206,164.948826 C328.639206,167.676826 327.973206,170.010826 326.310206,171.948826 C326.220206,169.296826 326.886206,166.963826 328.310206,164.948826 Z" id="Path" fill="#5A5A5A"></path>
            <path d="M966.310206,163.948826 C965.440206,167.356826 964.280206,170.690826 962.810206,173.948826 C962.390206,175.204826 961.560206,175.871826 960.310206,175.948826 C961.820206,171.599826 963.820206,167.599826 966.310206,163.948826 Z" id="Path" fill="#545454"></path>
            <path d="M456.310206,139.948826 C450.060206,166.444826 444.560206,193.111826 439.810206,219.948826 C440.155206,208.202826 441.488206,196.535826 443.810206,184.948826 C447.556206,172.814826 450.556206,160.481826 452.810206,147.948826 C453.515206,144.972826 454.681206,142.306826 456.310206,139.948826 Z" id="Path" fill="#2E2F2F"></path>
            <path d="M614.310206,175.948826 C614.612206,180.238826 613.946206,184.238826 612.310206,187.948826 C612.008206,183.658826 612.674206,179.658826 614.310206,175.948826 Z" id="Path" fill="#B3B3B3"></path>
            <path d="M269.310206,179.948826 C267.484206,185.604826 265.651206,191.270826 263.810206,196.948826 C263.427206,197.504826 262.927206,197.837826 262.310206,197.948826 C263.489206,191.395826 265.823206,185.395826 269.310206,179.948826 Z" id="Path" fill="#707171"></path>
            <path d="M971.310206,192.948826 C971.140206,196.634826 969.470206,199.301826 966.310206,200.948826 C967.190206,197.744826 968.860206,195.077826 971.310206,192.948826 Z" id="Path" fill="#9FA0A0"></path>
            <path d="M967.310206,225.948826 C967.640206,214.964826 969.640206,204.297826 973.310206,193.948826 C973.270206,193.032826 972.930206,192.365826 972.310206,191.948826 C972.270206,190.692826 972.770206,189.692826 973.810206,188.948826 C974.480206,191.948826 974.480206,194.948826 973.810206,197.948826 C971.950206,207.485826 969.780206,216.818826 967.310206,225.948826 Z" id="Path" fill="#A1A3A2"></path>
            <path d="M772.310206,215.948826 C771.820206,218.267826 770.820206,220.267826 769.310206,221.948826 C769.271206,219.359826 770.270206,217.359826 772.310206,215.948826 Z" id="Path" fill="#5A5A5A"></path>
            <path d="M353.310206,217.948826 C352.680206,220.198826 351.680206,222.198826 350.310206,223.948826 C349.841206,221.055826 350.841206,219.055826 353.310206,217.948826 Z" id="Path" fill="#727272"></path>
            <path d="M561.310206,218.948826 C560.427206,222.152826 558.760206,224.819826 556.310206,226.948826 C557.193206,223.744826 558.860206,221.077826 561.310206,218.948826 Z" id="Path" fill="#717171"></path>
            <path d="M838.310206,219.948826 C837.830206,223.532826 836.830206,226.865826 835.310206,229.948826 C835.130206,226.162826 836.130206,222.829826 838.310206,219.948826 Z" id="Path" fill="#898989"></path>
            <path d="M461.310206,213.948826 C461.448206,218.862826 460.782206,223.529826 459.310206,227.948826 C459.172206,223.034826 459.838206,218.367826 461.310206,213.948826 Z" id="Path" fill="#A0A0A0"></path>
            <path d="M495.310206,218.948826 C492.006206,227.888826 488.339206,236.554826 484.310206,244.948826 C485.817206,235.279826 489.484206,226.612826 495.310206,218.948826 Z" id="Path" fill="#8D8D8E"></path>
            <path d="M350.310206,223.948826 C349.758206,227.483826 348.592206,230.816826 346.810206,233.948826 C344.775206,237.791826 342.275206,241.124826 339.310206,243.948826 C342.236206,236.800826 345.903206,230.133826 350.310206,223.948826 Z" id="Path" fill="#858586"></path>
            <path d="M951.310206,223.948826 C949.120206,227.375826 946.450206,230.375826 943.310206,232.948826 C943.160206,231.896826 943.330206,230.896826 943.810206,229.948826 C946.470206,228.114826 948.970206,226.114826 951.310206,223.948826 Z" id="Path" fill="#626262"></path>
            <path d="M257.310206,219.948826 C257.530206,224.548826 256.864206,228.881826 255.310206,232.948826 C255.090206,228.348826 255.756206,224.015826 257.310206,219.948826 Z" id="Path" fill="#505050"></path>
            <path d="M607.310206,219.948826 C607.283206,225.499826 606.616206,230.832826 605.310206,235.948826 C605.065206,230.364826 605.732206,225.031826 607.310206,219.948826 Z" id="Path" fill="#8A8A8A"></path>
            <path d="M680.310206,219.948826 C679.796206,226.270826 679.463206,232.603826 679.310206,238.948826 C678.647206,236.807826 678.313206,234.473826 678.310206,231.948826 C678.221206,227.687826 678.888206,223.687826 680.310206,219.948826 Z" id="Path" fill="#585858"></path>
            <path d="M639.310206,221.948826 C639.467206,223.321826 639.300206,224.655826 638.810206,225.948826 C634.263206,234.375826 630.263206,243.042826 626.810206,251.948826 C625.861206,253.541826 624.695206,254.874826 623.310206,255.948826 C627.068206,243.769826 632.402206,232.436826 639.310206,221.948826 Z" id="Path" fill="#909090"></path>
            <path d="M923.310206,226.948826 C922.950206,228.819826 921.950206,230.319826 920.310206,231.448826 C916.740206,233.869826 913.070206,236.035826 909.310206,237.948826 C913.940206,234.292826 918.600206,230.626826 923.310206,226.948826 Z" id="Path" fill="#616161"></path>
            <path d="M903.310206,221.948826 C903.310206,227.615826 903.310206,233.281826 903.310206,238.948826 C905.370206,238.931826 907.370206,238.598826 909.310206,237.948826 C909.200206,238.565826 908.870206,239.065826 908.310206,239.448826 C906.340206,239.943826 904.340206,240.110826 902.310206,239.948826 C901.990206,233.758826 902.320206,227.758826 903.310206,221.948826 Z" id="Path" fill="#6C6C6C"></path>
            <path d="M705.310206,229.948826 C703.867206,235.373826 701.200206,240.039826 697.310206,243.948826 C699.474206,238.948826 702.141206,234.281826 705.310206,229.948826 Z" id="Path" fill="#737373"></path>
            <path d="M943.310206,232.948826 C941.020206,236.904826 938.020206,240.237826 934.310206,242.948826 C935.900206,240.180826 937.730206,237.513826 939.810206,234.948826 C940.630206,233.625826 941.790206,232.959826 943.310206,232.948826 Z" id="Path" fill="#7E7E7E"></path>
            <path d="M857.310206,240.948826 C855.380206,244.548826 852.710206,247.548826 849.310206,249.948826 C851.240206,246.348826 853.910206,243.348826 857.310206,240.948826 Z" id="Path" fill="#525252"></path>
            <path d="M527.310206,241.948826 C526.680206,249.691826 527.347206,257.024826 529.310206,263.948826 C528.601206,264.852826 527.601206,265.185826 526.310206,264.948826 C525.985206,257.096826 526.318206,249.430826 527.310206,241.948826 Z" id="Path" fill="#797979"></path>
            <path d="M761.310206,246.948826 C761.551206,249.346826 760.884206,251.346826 759.310206,252.948826 C759.069206,250.550826 759.736206,248.550826 761.310206,246.948826 Z" id="Path" fill="#747675"></path>
            <path d="M847.310206,251.948826 C845.190206,254.965826 842.530206,255.632826 839.310206,253.948826 C842.260206,254.161826 844.930206,253.494826 847.310206,251.948826 Z" id="Path" fill="#747474"></path>
            <path d="M93.3102063,248.948826 C93.3602063,253.493826 91.6932063,257.159826 88.3102063,259.948826 C89.5662063,256.047826 91.2332063,252.380826 93.3102063,248.948826 Z" id="Path" fill="#666666"></path>
            <path d="M578.310206,253.948826 C579.578206,256.353826 580.245206,259.020826 580.310206,261.948826 C578.770206,259.610826 578.104206,256.943826 578.310206,253.948826 Z" id="Path" fill="#909090"></path>
            <path d="M758.310206,257.948826 C757.818206,260.267826 756.818206,262.267826 755.310206,263.948826 C754.841206,261.055826 755.841206,259.055826 758.310206,257.948826 Z" id="Path" fill="#8D8E8E"></path>
            <path d="M384.310206,251.948826 C383.986206,258.802826 384.319206,265.469826 385.310206,271.948826 C385.250206,272.491826 384.917206,272.824826 384.310206,272.948826 C382.991206,265.792826 382.991206,258.792826 384.310206,251.948826 Z" id="Path" fill="#838383"></path>
            <path d="M991.310206,261.948826 C991.290206,265.982826 990.290206,269.649826 988.310206,272.948826 C988.550206,268.969826 989.550206,265.302826 991.310206,261.948826 Z" id="Path" fill="#6C6C6C"></path>
            <path d="M581.310206,267.948826 C582.681206,270.384826 583.681206,273.051826 584.310206,275.948826 C582.155206,273.831826 581.155206,271.164826 581.310206,267.948826 Z" id="Path" fill="#888888"></path>
            <path d="M477.310206,263.948826 C476.892206,267.797826 475.225206,270.797826 472.310206,272.948826 C473.220206,269.456826 474.886206,266.456826 477.310206,263.948826 Z" id="Path" fill="#575757"></path>
            <path d="M753.310206,268.948826 C751.977206,272.281826 749.643206,274.615826 746.310206,275.948826 C748.310206,273.281826 750.643206,270.948826 753.310206,268.948826 Z" id="Path" fill="#9F9F9F"></path>
            <path d="M470.310206,276.948826 C469.949206,280.670826 468.282206,283.670826 465.310206,285.948826 C466.741206,282.747826 468.407206,279.747826 470.310206,276.948826 Z" id="Path" fill="#666666"></path>
            <path d="M312.310206,279.948826 C310.818206,282.771826 308.484206,284.438826 305.310206,284.948826 C307.360206,282.901826 309.693206,281.234826 312.310206,279.948826 Z" id="Path" fill="#676767"></path>
            <path d="M304.310206,284.948826 C304.199206,285.565826 303.866206,286.065826 303.310206,286.448826 C300.027206,287.471826 296.694206,288.305826 293.310206,288.948826 C291.772206,288.995826 290.772206,288.328826 290.310206,286.948826 C295.137206,287.227826 299.803206,286.561826 304.310206,284.948826 Z" id="Path" fill="#727272"></path>
            <path d="M0.310206292,277.948826 C1.33120629,282.428826 1.99720629,287.095826 2.31020629,291.948826 C0.599206292,287.567826 -0.0667937075,282.901826 0.310206292,277.948826 Z" id="Path" fill="#AAAAAA"></path>
            <path d="M483.310206,286.948826 C480.970206,293.978826 476.636206,299.644826 470.310206,303.948826 C470.091206,302.773826 470.424206,301.773826 471.310206,300.948826 C475.318206,296.250826 479.318206,291.583826 483.310206,286.948826 Z" id="Path" fill="#828282"></path>
            <path d="M946.310206,304.948826 C946.040206,308.806826 944.710206,312.139826 942.310206,314.948826 C943.080206,311.299826 944.410206,307.966826 946.310206,304.948826 Z" id="Path" fill="#626262"></path>
            <path d="M39.3102063,305.948826 C40.8822063,308.663826 41.8822063,311.663826 42.3102063,314.948826 C40.3382063,312.364826 39.3382063,309.364826 39.3102063,305.948826 Z" id="Path" fill="#5F6160"></path>
            <path d="M176.310206,304.948826 C175.082206,307.523826 173.415206,309.856826 171.310206,311.948826 C167.355206,315.333826 163.355206,315.667826 159.310206,312.948826 C161.265206,313.771826 163.265206,313.938826 165.310206,313.448826 C169.368206,311.090826 173.035206,308.256826 176.310206,304.948826 Z" id="Path" fill="#4A4A4A"></path>
            <path d="M976.310206,312.948826 C975.200206,316.980826 973.530206,320.646826 971.310206,323.948826 C972.030206,319.747826 973.700206,316.080826 976.310206,312.948826 Z" id="Path" fill="#737373"></path>
            <path d="M887.310206,317.948826 C886.390206,320.537826 884.720206,322.537826 882.310206,323.948826 C883.230206,321.359826 884.900206,319.359826 887.310206,317.948826 Z" id="Path" fill="#595959"></path>
            <path d="M882.310206,323.948826 C879.950206,327.366826 877.620206,330.699826 875.310206,333.948826 C876.170206,329.556826 878.500206,326.223826 882.310206,323.948826 Z" id="Path" fill="#797979"></path>
            <path d="M779.310206,421.948826 C780.260206,421.296826 781.430206,420.962826 782.810206,420.948826 C784.820206,420.755826 786.320206,421.422826 787.310206,422.948826 C784.710206,422.183826 782.050206,421.849826 779.310206,421.948826 Z" id="Path" fill="#8F8F8F"></path>
            <path d="M779.310206,421.948826 C782.050206,421.849826 784.710206,422.183826 787.310206,422.948826 C789.920206,423.891826 791.920206,425.558826 793.310206,427.948826 C794.930206,433.460826 795.600206,439.126826 795.310206,444.948826 C794.130206,455.309826 788.460206,459.809826 778.310206,458.448826 C777.750206,458.065826 777.420206,457.565826 777.310206,456.948826 C775.900206,454.534826 773.900206,452.867826 771.310206,451.948826 C766.159206,443.569826 765.992206,434.903826 770.810206,425.948826 C772.950206,423.127826 775.780206,421.794826 779.310206,421.948826 Z" id="Path" fill="#090909"></path>
            <path d="M793.310206,427.948826 C794.600206,429.290826 795.440206,430.957826 795.810206,432.948826 C796.620206,437.137826 796.460206,441.137826 795.310206,444.948826 C795.600206,439.126826 794.930206,433.460826 793.310206,427.948826 Z" id="Path" fill="#555555"></path>
            <path d="M415.310206,452.948826 C416.134206,456.212826 416.468206,459.546826 416.310206,462.948826 C411.236206,481.729826 402.403206,483.729826 389.810206,468.948826 C383.546206,455.764826 387.379206,447.431826 401.310206,443.948826 C407.603206,444.600826 412.269206,447.600826 415.310206,452.948826 Z" id="Path" fill="#080809"></path>
            <path d="M710.310206,370.448826 C713.243206,372.974826 715.743206,375.808826 717.810206,378.948826 C718.477206,381.281826 718.477206,383.615826 717.810206,385.948826 C715.216206,394.189826 713.049206,402.522826 711.310206,410.948826 C725.625206,409.152826 739.959206,407.485826 754.310206,405.948826 C758.309206,405.470826 761.809206,406.470826 764.810206,408.948826 C764.710206,413.744826 762.210206,416.910826 757.310206,418.448826 C740.023206,423.982826 722.356206,427.482826 704.310206,428.948826 C700.215206,442.418826 696.882206,456.085826 694.310206,469.948826 C692.886206,471.963826 692.220206,474.296826 692.310206,476.948826 C689.700206,492.790826 686.367206,508.457826 682.310206,523.948826 C680.756206,528.015826 680.090206,532.348826 680.310206,536.948826 C679.638206,544.003826 678.638206,551.003826 677.310206,557.948826 C676.150206,571.108826 675.983206,584.442826 676.810206,597.948826 C677.088206,598.864826 677.588206,599.530826 678.310206,599.948826 C678.270206,603.329826 678.603206,606.662826 679.310206,609.948826 C680.362206,610.097826 681.362206,609.931826 682.310206,609.448826 C685.224206,606.048826 687.890206,602.548826 690.310206,598.948826 C692.360206,597.211826 694.193206,595.211826 695.810206,592.948826 C699.953206,583.994826 704.620206,575.328826 709.810206,566.948826 C710.300206,565.655826 710.467206,564.321826 710.310206,562.948826 C717.070206,550.429826 723.570206,537.762826 729.810206,524.948826 L736.810206,515.948826 C739.602206,504.745826 743.602206,494.078826 748.810206,483.948826 C757.167206,474.740826 765.500206,474.740826 773.810206,483.948826 C774.790206,485.814826 775.290206,487.814826 775.310206,489.948826 C770.850206,503.833826 766.683206,517.833826 762.810206,531.948826 C760.152206,546.842826 758.319206,561.842826 757.310206,576.948826 C757.584206,583.096826 758.584206,589.096826 760.310206,594.948826 C766.262206,597.019826 770.260206,595.019826 772.310206,588.948826 C774.710206,587.152826 776.380206,584.818826 777.310206,581.948826 C780.390206,578.798826 782.720206,575.131826 784.310206,570.948826 C785.880206,569.346826 786.550206,567.346826 786.310206,564.948826 C786.310206,564.281826 786.640206,563.948826 787.310206,563.948826 C789.730206,561.108826 791.060206,557.775826 791.310206,553.948826 C793.050206,547.133826 795.880206,540.800826 799.810206,534.948826 C802.800206,514.976826 811.130206,497.642826 824.810206,482.948826 C829.450206,474.502826 834.950206,466.669826 841.310206,459.448826 C852.610206,456.283826 863.940206,456.116826 875.310206,458.948826 C877.270206,459.940826 879.270206,460.940826 881.310206,461.948826 C885.080206,464.385826 887.750206,467.719826 889.310206,471.948826 C890.070206,477.667826 891.730206,483.000826 894.310206,487.948826 C894.160206,497.305826 894.490206,506.639826 895.310206,515.948826 C894.340206,518.055826 894.010206,520.389826 894.310206,522.948826 C896.220206,523.232826 897.890206,522.899826 899.310206,521.948826 C902.910206,519.808826 906.580206,517.641826 910.310206,515.448826 C913.320206,511.437826 916.160206,507.271826 918.810206,502.948826 C922.090206,492.490826 924.420206,481.823826 925.810206,470.948826 C929.340206,457.912826 937.510206,454.078826 950.310206,459.448826 C951.480206,459.948826 952.310206,460.781826 952.810206,461.948826 C953.010206,467.955826 952.680206,473.955826 951.810206,479.948826 C949.790206,494.405826 947.460206,508.739826 944.810206,522.948826 C947.670206,515.828826 951.170206,509.161826 955.310206,502.948826 C958.540206,496.381826 962.200206,490.048826 966.310206,483.948826 C976.220206,468.538826 989.220206,456.371826 1005.31021,447.448826 C1013.88021,447.312826 1021.38021,450.145826 1027.81021,455.948826 C1028.30021,457.241826 1028.47021,458.575826 1028.31021,459.948826 C1028.41021,463.084826 1029.41021,465.750826 1031.31021,467.948826 C1032.48021,473.280826 1032.31021,478.613826 1030.81021,483.948826 C1023.95021,507.602826 1018.28021,531.602826 1013.81021,555.948826 C1011.76021,568.455826 1011.92021,580.789826 1014.31021,592.948826 C1015.13021,594.926826 1016.63021,595.926826 1018.81021,595.948826 C1021.44021,595.514826 1023.94021,594.681826 1026.31021,593.448826 C1031.47021,588.243826 1035.47021,582.409826 1038.31021,575.948826 C1045.30021,564.631826 1051.80021,552.965826 1057.81021,540.948826 C1060.34021,537.434826 1063.17021,537.101826 1066.31243,539.948826 C1066.35021,543.358826 1065.85021,546.691826 1064.81021,549.948826 C1062.22021,553.888826 1060.72021,558.221826 1060.31021,562.948826 C1055.35021,574.200826 1049.85021,585.200826 1043.81021,595.948826 C1036.74021,606.372826 1027.07021,612.706826 1014.81021,614.948826 C1001.85021,614.663826 992.520206,608.663826 986.810206,596.948826 C982.570206,582.573826 981.240206,567.907826 982.810206,552.948826 C983.840206,543.907826 985.180206,534.907826 986.810206,525.948826 C989.910206,515.145826 993.080206,504.478826 996.310206,493.948826 C998.090206,490.943826 999.090206,487.610826 999.310206,483.948826 C1001.15021,478.621826 1002.65021,473.288826 1003.81021,467.948826 C1003.09021,468.492826 1002.59021,469.159826 1002.31021,469.948826 C998.640206,471.615826 995.980206,474.281826 994.310206,477.948826 C990.980206,479.281826 988.640206,481.615826 987.310206,484.948826 C984.550206,486.396826 982.880206,488.729826 982.310206,491.948826 C979.860206,494.077826 978.190206,496.744826 977.310206,499.948826 C974.590206,503.034826 972.090206,506.368826 969.810206,509.948826 C966.600206,518.032826 963.100206,526.032826 959.310206,533.948826 C955.990206,537.862826 953.990206,542.528826 953.310206,547.948826 C951.230206,550.132826 950.230206,552.799826 950.310206,555.948826 C942.220206,572.881826 935.890206,590.547826 931.310206,608.948826 C930.240206,610.333826 928.900206,611.499826 927.310206,612.448826 C923.980206,613.115826 920.640206,613.115826 917.310206,612.448826 C910.750206,606.094826 907.250206,598.260826 906.810206,588.948826 C906.810206,569.961826 909.310206,551.294826 914.310206,532.948826 L913.310206,531.948826 C908.900206,534.530826 904.230206,536.530826 899.310206,537.948826 C896.690206,537.680826 894.190206,538.013826 891.810206,538.948826 C890.660206,541.841826 890.160206,544.841826 890.310206,547.948826 C881.510206,577.904826 863.180206,599.737826 835.310206,613.448826 C829.770206,614.361826 824.440206,613.694826 819.310206,611.448826 C807.990206,602.653826 800.820206,591.153826 797.810206,576.948826 C792.310206,587.938826 785.810206,598.271826 778.310206,607.948826 C774.760206,609.559826 771.760206,611.892826 769.310206,614.948826 C767.726206,615.830826 766.059206,616.663826 764.310206,617.448826 C759.310206,618.115826 754.310206,618.115826 749.310206,617.448826 C746.842206,616.469826 744.842206,614.969826 743.310206,612.948826 C741.977206,610.948826 740.310206,609.281826 738.310206,607.948826 C728.609206,592.799826 724.776206,576.132826 726.810206,557.948826 C719.027206,579.849826 708.360206,600.183826 694.810206,618.948826 C683.317206,633.047826 671.317206,633.381826 658.810206,619.948826 C656.541206,616.410826 654.541206,612.743826 652.810206,608.948826 C650.049206,596.715826 648.049206,584.382826 646.810206,571.948826 C642.957206,580.499826 639.290206,589.166826 635.810206,597.948826 C632.884206,603.474826 629.717206,608.807826 626.310206,613.948826 C623.896206,615.359826 622.229206,617.359826 621.310206,619.948826 C613.973206,624.452826 605.973206,626.285826 597.310206,625.448826 C589.298206,620.255826 583.632206,613.089826 580.310206,603.948826 C580.551206,601.550826 579.884206,599.550826 578.310206,597.948826 L578.310206,594.948826 C578.134206,591.721826 577.467206,588.721826 576.310206,585.948826 C576.475206,582.266826 576.309206,578.600826 575.810206,574.948826 C575.143206,573.615826 574.477206,573.615826 573.810206,574.948826 C572.801206,576.473826 572.301206,578.140826 572.310206,579.948826 C569.628206,581.978826 567.961206,584.645826 567.310206,587.948826 C563.585206,593.045826 560.085206,598.378826 556.810206,603.948826 C552.276206,608.147826 548.109206,612.647826 544.310206,617.448826 L531.310206,624.448826 C524.648206,626.036826 518.815206,624.536826 513.810206,619.948826 C511.388206,616.104826 508.721206,612.438826 505.810206,608.948826 C504.753206,603.375826 503.086206,598.042826 500.810206,592.948826 C494.407206,609.753826 486.407206,625.753826 476.810206,640.948826 C468.097206,650.582826 458.597206,651.416826 448.310206,643.448826 C440.550206,635.194826 436.050206,625.361826 434.810206,613.948826 C433.899206,601.798826 433.065206,589.798826 432.310206,577.948826 C428.879206,583.891826 426.213206,590.224826 424.310206,596.948826 C420.009206,609.560826 412.342206,619.560826 401.310206,626.948826 C399.061206,627.528826 397.395206,628.861826 396.310206,630.948826 C390.115206,632.714826 383.782206,633.214826 377.310206,632.448826 C371.856206,629.328826 367.356206,625.161826 363.810206,619.948826 C356.948206,604.633826 354.615206,588.633826 356.810206,571.948826 C360.080206,550.591826 364.747206,529.591826 370.810206,508.948826 C372.208206,504.045826 374.708206,499.879826 378.310206,496.448826 C387.789206,492.941826 395.289206,495.441826 400.810206,503.948826 C401.477206,508.615826 401.477206,513.281826 400.810206,517.948826 C398.499206,531.334826 395.999206,544.667826 393.310206,557.948826 C392.026206,562.433826 391.026206,567.099826 390.310206,571.948826 C388.349206,585.248826 388.015206,598.582826 389.310206,611.948826 C390.683206,612.105826 392.017206,611.938826 393.310206,611.448826 C395.869206,609.671826 398.536206,608.171826 401.310206,606.948826 C403.055206,605.415826 404.055206,603.415826 404.310206,600.948826 C405.150206,598.087826 406.483206,595.421826 408.310206,592.948826 C411.925206,589.389826 414.259206,585.055826 415.310206,579.948826 C415.138206,578.956826 415.472206,578.290826 416.310206,577.948826 C417.884206,576.346826 418.551206,574.346826 418.310206,571.948826 L418.310206,570.948826 C419.268206,570.495826 420.102206,569.829826 420.810206,568.948826 C423.227206,562.849826 425.727206,556.849826 428.310206,550.948826 C431.607206,544.106826 434.774206,537.106826 437.810206,529.948826 C443.469206,497.478826 450.969206,465.478826 460.310206,433.948826 C460.853206,433.888826 461.186206,433.555826 461.310206,432.948826 C456.018206,431.953826 450.685206,431.620826 445.310206,431.948826 C422.648206,430.942826 399.982206,430.442826 377.310206,430.448826 C367.643206,435.938826 361.476206,444.105826 358.810206,454.948826 C352.785206,458.380826 348.785206,456.714826 346.810206,449.948826 C345.615206,442.939826 346.615206,436.273826 349.810206,429.948826 C357.295206,421.789826 366.461206,416.622826 377.310206,414.448826 C407.305206,413.484826 437.305206,412.651826 467.310206,411.948826 C471.257206,401.589826 476.423206,391.922826 482.810206,382.948826 C485.074206,379.685826 488.240206,378.018826 492.310206,377.948826 C498.750206,378.752826 503.917206,381.752826 507.810206,386.948826 C507.735206,395.589826 505.902206,403.922826 502.310206,411.948826 C502.418206,412.890826 502.751206,413.723826 503.310206,414.448826 C561.011206,416.733826 618.677206,416.233826 676.310206,412.948826 C678.828206,398.881826 683.495206,385.547826 690.310206,372.948826 C696.233206,366.041826 702.899206,365.208826 710.310206,370.448826 Z M668.310206,431.948826 C667.892206,432.670826 667.226206,433.170826 666.310206,433.448826 C655.315206,433.948826 644.315206,434.115826 633.310206,433.948826 L619.310206,433.948826 C615.163206,434.773826 610.829206,435.273826 606.310206,435.448826 C568.978206,435.948826 531.645206,436.115826 494.310206,435.948826 C491.882206,441.142826 489.716206,446.476826 487.810206,451.948826 C470.091206,506.591826 462.258206,562.591826 464.310206,619.948826 C465.123206,621.709826 466.123206,623.376826 467.310206,624.948826 C471.475206,619.290826 475.142206,613.290826 478.310206,606.948826 C479.127206,603.969826 479.961206,600.969826 480.810206,597.948826 C485.213206,591.132826 489.046206,584.132826 492.310206,576.948826 C495.073206,570.645826 498.573206,564.645826 502.810206,558.948826 C508.216206,529.292826 522.049206,504.459826 544.310206,484.448826 C560.742206,471.442826 577.742206,470.608826 595.310206,481.948826 C606.686206,478.533826 616.519206,481.200826 624.810206,489.948826 C625.477206,491.281826 625.477206,492.615826 624.810206,493.948826 C621.431206,500.075826 618.431206,506.409826 615.810206,512.948826 C613.273206,523.296826 610.606206,533.629826 607.810206,543.948826 C605.535206,554.984826 604.368206,566.151826 604.310206,577.448826 C603.275206,586.372826 604.942206,594.706826 609.310206,602.448826 C610.310206,603.115826 611.310206,603.115826 612.310206,602.448826 C617.906206,598.689826 622.239206,593.856826 625.310206,587.948826 C626.928206,581.387826 629.595206,575.387826 633.310206,569.948826 C637.857206,559.184826 642.691206,548.517826 647.810206,537.948826 C653.330206,502.512826 660.830206,467.512826 670.310206,432.948826 C669.853206,432.150826 669.186206,431.817826 668.310206,431.948826 Z M569.310206,496.448826 C562.772206,501.993826 557.272206,508.493826 552.810206,515.948826 C547.792206,528.645826 542.792206,541.311826 537.810206,553.948826 C536.065206,563.342826 534.065206,572.676826 531.810206,581.948826 C530.979206,589.304826 531.145206,596.637826 532.310206,603.948826 C537.835206,599.223826 542.668206,593.890826 546.810206,587.948826 C552.131206,578.276826 557.631206,568.943826 563.310206,559.948826 C564.584206,556.688826 566.250206,553.688826 568.310206,550.948826 C575.741206,533.665826 582.408206,515.999826 588.310206,497.948826 C582.182206,494.709826 575.848206,494.209826 569.310206,496.448826 Z M840.310206,517.948826 C834.100206,533.441826 829.770206,549.441826 827.310206,565.948826 C826.650206,569.914826 826.310206,573.914826 826.310206,577.948826 C827.120206,582.177826 828.120206,586.343826 829.310206,590.448826 C830.640206,591.115826 831.980206,591.115826 833.310206,590.448826 C845.030206,584.323826 855.200206,576.156826 863.810206,565.948826 C868.660206,556.916826 873.490206,547.916826 878.310206,538.948826 C862.680206,537.138826 850.020206,530.138826 840.310206,517.948826 Z M866.310206,481.448826 C849.520206,479.751826 843.190206,487.251826 847.310206,503.948826 C849.210206,507.427826 850.880206,511.094826 852.310206,514.948826 L854.310206,515.948826 C860.560206,519.241826 866.890206,522.241826 873.310206,524.948826 L882.310206,524.948826 C882.910206,517.282826 883.580206,509.615826 884.310206,501.948826 C884.250206,498.545826 883.750206,495.212826 882.810206,491.948826 C878.750206,486.326826 873.250206,482.826826 866.310206,481.448826 Z" id="Combined-Shape" fill="#080909"></path>
            <path d="M771.310206,451.948826 C773.900206,452.867826 775.900206,454.534826 777.310206,456.948826 C774.720206,456.029826 772.720206,454.362826 771.310206,451.948826 Z" id="Path" fill="#5A5A5A"></path>
            <path d="M619.310206,433.948826 C615.163206,434.773826 610.829206,435.273826 606.310206,435.448826 C568.978206,435.948826 531.645206,436.115826 494.310206,435.948826 C535.811206,435.107826 577.478206,434.440826 619.310206,433.948826 Z" id="Path" fill="#6A6C6B"></path>
            <path d="M668.310206,431.948826 C667.892206,432.670826 667.226206,433.170826 666.310206,433.448826 C655.315206,433.948826 644.315206,434.115826 633.310206,433.948826 C644.810206,433.054826 656.477206,432.387826 668.310206,431.948826 Z" id="Path" fill="#A3A3A3"></path>
            <path d="M445.310206,431.948826 C450.685206,431.620826 456.018206,431.953826 461.310206,432.948826 C461.186206,433.555826 460.853206,433.888826 460.310206,433.948826 C455.310206,433.281826 450.310206,432.615826 445.310206,431.948826 Z" id="Path" fill="#A0A0A1"></path>
            <path d="M875.310206,458.948826 C878.120206,458.473826 880.120206,459.473826 881.310206,461.948826 C879.270206,460.940826 877.270206,459.940826 875.310206,458.948826 Z" id="Path" fill="#9F9F9F"></path>
            <path d="M415.310206,452.948826 C415.927206,453.059826 416.427206,453.392826 416.810206,453.948826 C417.615206,457.144826 417.448206,460.144826 416.310206,462.948826 C416.468206,459.546826 416.134206,456.212826 415.310206,452.948826 Z" id="Path" fill="#767676"></path>
            <path d="M1028.31021,459.948826 C1030.50021,461.970826 1031.50021,464.637826 1031.31021,467.948826 C1029.41021,465.750826 1028.41021,463.084826 1028.31021,459.948826 Z" id="Path" fill="#8D8D8D"></path>
            <path d="M331.310206,564.948826 C329.196206,569.642826 327.863206,574.642826 327.310206,579.948826 C325.155206,582.065826 324.155206,584.732826 324.310206,587.948826 C318.469206,601.976826 312.302206,615.976826 305.810206,629.948826 C302.610206,636.489826 297.610206,640.822826 290.810206,642.948826 C287.427206,642.931826 284.260206,642.098826 281.310206,640.448826 C277.128206,636.433826 273.128206,632.266826 269.310206,627.948826 C263.640206,614.097826 259.807206,599.763826 257.810206,584.948826 C253.079206,599.664826 246.912206,613.664826 239.310206,626.948826 C236.487206,628.440826 234.820206,630.774826 234.310206,633.948826 C231.688206,636.230826 229.022206,638.563826 226.310206,640.948826 C218.544206,645.200826 210.210206,646.700826 201.310206,645.448826 C190.411206,638.150826 184.245206,627.984826 182.810206,614.948826 C182.143206,603.281826 182.143206,591.615826 182.810206,579.948826 C182.989206,576.423826 183.489206,573.089826 184.310206,569.948826 C186.415206,567.040826 187.415206,563.706826 187.310206,559.948826 C188.037206,555.102826 189.370206,550.435826 191.310206,545.948826 C192.884206,544.346826 193.551206,542.346826 193.310206,539.948826 C197.239206,529.842826 200.905206,519.675826 204.310206,509.448826 C204.240206,508.683826 203.907206,508.183826 203.310206,507.948826 C196.336206,511.922826 190.670206,517.256826 186.310206,523.948826 C182.627206,527.473826 179.460206,531.473826 176.810206,535.948826 C159.366206,567.278826 146.033206,600.278826 136.810206,634.948826 C132.278206,641.463826 126.112206,643.963826 118.310206,642.448826 C116.432206,640.905826 114.932206,639.072826 113.810206,636.948826 C112.008206,632.353826 110.508206,627.686826 109.310206,622.948826 C110.076206,608.657826 110.076206,594.323826 109.310206,579.948826 C110.434206,570.647826 112.101206,561.314826 114.310206,551.948826 C115.734206,549.933826 116.400206,547.600826 116.310206,544.948826 C119.173206,527.494826 122.673206,510.161826 126.810206,492.948826 C127.977206,490.448826 129.810206,488.615826 132.310206,487.448826 C141.477206,485.615826 148.311206,488.782826 152.810206,496.948826 C152.977206,500.115826 153.143206,503.281826 153.310206,506.448826 C152.537206,515.985826 151.370206,525.485826 149.810206,534.948826 C147.483206,541.084826 145.983206,547.417826 145.310206,553.948826 C143.658206,557.692826 143.158206,561.692826 143.810206,565.948826 C144.832206,562.830826 145.999206,559.830826 147.310206,556.948826 C153.337206,543.897826 160.171206,531.230826 167.810206,518.948826 C172.802206,512.126826 178.302206,505.793826 184.310206,499.948826 C187.910206,498.018826 190.910206,495.351826 193.310206,491.948826 C209.600206,482.198826 221.766206,485.865826 229.810206,502.948826 C230.477206,508.948826 230.477206,514.948826 229.810206,520.948826 C223.665206,549.192826 217.999206,577.526826 212.810206,605.948826 C211.988206,613.460826 212.155206,620.793826 213.310206,627.948826 C215.098206,629.070826 217.098206,629.237826 219.310206,628.448826 C223.263206,625.669826 226.263206,622.169826 228.310206,617.948826 C236.511206,601.985826 244.511206,585.985826 252.310206,569.948826 C254.055206,568.415826 255.055206,566.415826 255.310206,563.948826 C256.722206,561.450826 257.889206,558.784826 258.810206,555.948826 C259.146206,539.906826 260.146206,523.906826 261.810206,507.948826 C262.574206,500.829826 263.908206,493.829826 265.810206,486.948826 C268.899206,483.638826 272.732206,481.972826 277.310206,481.948826 C286.800206,480.923826 292.634206,484.923826 294.810206,493.948826 C296.147206,501.288826 296.314206,508.621826 295.310206,515.948826 C294.123206,519.394826 293.456206,523.061826 293.310206,526.948826 C291.921206,531.717826 291.254206,536.717826 291.310206,541.948826 C291.338206,547.310826 291.004206,552.643826 290.310206,557.948826 C288.796206,564.043826 288.130206,570.376826 288.310206,576.948826 C288.311206,581.461826 288.644206,585.795826 289.310206,589.948826 C289.871206,597.711826 291.038206,605.377826 292.810206,612.948826 C301.291206,595.652826 308.957206,577.985826 315.810206,559.948826 C323.873206,534.422826 331.540206,508.756826 338.810206,482.948826 C340.165206,478.068826 342.665206,473.901826 346.310206,470.448826 C348.243206,469.665826 349.743206,470.165826 350.810206,471.948826 C351.477206,475.948826 351.477206,479.948826 350.810206,483.948826 C345.024206,511.136826 338.524206,538.136826 331.310206,564.948826 Z" id="Path" fill="#080909"></path>
            <path d="M1002.31021,469.948826 C999.980206,472.948826 997.310206,475.615826 994.310206,477.948826 C995.980206,474.281826 998.640206,471.615826 1002.31021,469.948826 Z" id="Path" fill="#8F8F8F"></path>
            <path d="M694.310206,469.948826 C694.400206,472.600826 693.734206,474.933826 692.310206,476.948826 C692.220206,474.296826 692.886206,471.963826 694.310206,469.948826 Z" id="Path" fill="#737373"></path>
            <path d="M994.310206,477.948826 C992.310206,480.615826 989.980206,482.948826 987.310206,484.948826 C988.640206,481.615826 990.980206,479.281826 994.310206,477.948826 Z" id="Path" fill="#7E7E7E"></path>
            <path d="M889.310206,471.948826 C892.190206,476.790826 893.860206,482.124826 894.310206,487.948826 C891.730206,483.000826 890.070206,477.667826 889.310206,471.948826 Z" id="Path" fill="#747474"></path>
            <path d="M999.310206,483.948826 C999.090206,487.610826 998.090206,490.943826 996.310206,493.948826 C996.530206,490.286826 997.530206,486.953826 999.310206,483.948826 Z" id="Path" fill="#585858"></path>
            <path d="M987.310206,484.948826 C986.000206,487.583826 984.330206,489.917826 982.310206,491.948826 C982.880206,488.729826 984.550206,486.396826 987.310206,484.948826 Z" id="Path" fill="#666666"></path>
            <path d="M464.310206,467.948826 C464.949206,468.545826 465.282206,469.378826 465.310206,470.448826 C461.907206,484.559826 458.741206,498.726826 455.810206,512.948826 C455.724206,508.619826 456.058206,504.285826 456.810206,499.948826 C459.002206,489.181826 461.502206,478.515826 464.310206,467.948826 Z" id="Path" fill="#343635"></path>
            <path d="M193.310206,491.948826 C190.910206,495.351826 187.910206,498.018826 184.310206,499.948826 C186.710206,496.545826 189.710206,493.878826 193.310206,491.948826 Z" id="Path" fill="#404040"></path>
            <path d="M982.310206,491.948826 C981.430206,495.152826 979.760206,497.819826 977.310206,499.948826 C978.190206,496.744826 979.860206,494.077826 982.310206,491.948826 Z" id="Path" fill="#7E7E7E"></path>
            <path d="M966.310206,483.948826 C962.200206,490.048826 958.540206,496.381826 955.310206,502.948826 C955.150206,500.921826 955.310206,498.921826 955.810206,496.948826 C958.850206,492.179826 962.350206,487.845826 966.310206,483.948826 Z" id="Path" fill="#626262"></path>
            <path d="M72.3102063,552.948826 C70.7792063,557.698826 70.1122063,562.698826 70.3102063,567.948826 C66.5462063,599.187826 65.5462063,630.520826 67.3102063,661.948826 C73.3192063,661.782826 79.3192063,661.949826 85.3102063,662.448826 C96.7242063,663.520826 101.891206,669.687826 100.810206,680.948826 C99.4322063,683.556826 97.2652063,685.056826 94.3102063,685.448826 C79.9802063,687.039826 65.6472063,688.539826 51.3102063,689.948826 C43.7442063,690.220826 36.4112063,691.220826 29.3102063,692.948826 C23.8782063,693.520826 18.5442063,694.520826 13.3102063,695.948826 C2.71820629,694.510826 -1.44879371,688.510826 0.810206292,677.948826 C6.53920629,673.000826 13.0392063,669.500826 20.3102063,667.448826 C25.9662063,666.560826 31.6332063,665.727826 37.3102063,664.948826 C34.8532063,658.162826 33.3532063,651.162826 32.8102063,643.948826 C32.5202063,569.940826 40.8532063,496.940826 57.8102063,424.948826 C58.7222063,419.984826 59.2222063,414.984826 59.3102063,409.948826 C48.3502063,409.880826 38.0162063,412.380826 28.3102063,417.448826 C24.4872063,418.065826 20.9872063,417.231826 17.8102063,414.948826 C16.5442063,411.982826 15.3772063,408.982826 14.3102063,405.948826 C16.4122063,399.345826 20.7462063,394.845826 27.3102063,392.448826 C58.3332063,381.237826 90.3332063,375.570826 123.310206,375.448826 C135.090206,374.871826 145.090206,378.704826 153.310206,386.948826 C157.771206,392.805826 157.104206,397.972826 151.310206,402.448826 C138.643206,402.781826 125.977206,403.115826 113.310206,403.448826 C106.077206,403.464826 99.0772063,404.631826 92.3102063,406.948826 C85.1592063,455.486826 78.4922063,504.153826 72.3102063,552.948826 Z" id="Path" fill="#070708"></path>
            <path d="M847.310206,503.948826 C849.210206,507.427826 850.880206,511.094826 852.310206,514.948826 C851.060206,514.871826 850.230206,514.204826 849.810206,512.948826 C848.380206,510.095826 847.550206,507.095826 847.310206,503.948826 Z" id="Path" fill="#606060"></path>
            <path d="M854.310206,515.948826 C860.560206,519.241826 866.890206,522.241826 873.310206,524.948826 C865.710206,524.314826 859.380206,521.314826 854.310206,515.948826 Z" id="Path" fill="#868686"></path>
            <path d="M203.310206,507.948826 C197.716206,513.204826 192.050206,518.537826 186.310206,523.948826 C190.670206,517.256826 196.336206,511.922826 203.310206,507.948826 Z" id="Path" fill="#9B9B9B"></path>
            <path d="M895.310206,515.948826 C896.270206,517.713826 896.600206,519.713826 896.310206,521.948826 C897.310206,521.948826 898.310206,521.948826 899.310206,521.948826 C897.890206,522.899826 896.220206,523.232826 894.310206,522.948826 C894.010206,520.389826 894.340206,518.055826 895.310206,515.948826 Z" id="Path" fill="#737373"></path>
            <path d="M295.310206,515.948826 C295.283206,521.499826 294.616206,526.832826 293.310206,531.948826 C293.310206,530.281826 293.310206,528.615826 293.310206,526.948826 C293.456206,523.061826 294.123206,519.394826 295.310206,515.948826 Z" id="Path" fill="#9A9C9B"></path>
            <path d="M682.310206,523.948826 C682.530206,528.548826 681.864206,532.881826 680.310206,536.948826 C680.090206,532.348826 680.756206,528.015826 682.310206,523.948826 Z" id="Path" fill="#606161"></path>
            <path d="M959.310206,533.948826 C957.490206,538.773826 955.490206,543.440826 953.310206,547.948826 C953.990206,542.528826 955.990206,537.862826 959.310206,533.948826 Z" id="Path" fill="#818181"></path>
            <path d="M293.310206,526.948826 C293.310206,528.615826 293.310206,530.281826 293.310206,531.948826 C293.261206,535.526826 292.595206,538.859826 291.310206,541.948826 C291.254206,536.717826 291.921206,531.717826 293.310206,526.948826 Z" id="Path" fill="#4C4C4C"></path>
            <path d="M899.310206,537.948826 C897.440206,538.613826 895.440206,539.279826 893.310206,539.948826 C892.600206,542.224826 892.100206,544.557826 891.810206,546.948826 C891.430206,547.504826 890.930206,547.837826 890.310206,547.948826 C890.160206,544.841826 890.660206,541.841826 891.810206,538.948826 C894.190206,538.013826 896.690206,537.680826 899.310206,537.948826 Z" id="Path" fill="#707070"></path>
            <path d="M193.310206,539.948826 C193.551206,542.346826 192.884206,544.346826 191.310206,545.948826 C191.069206,543.550826 191.736206,541.550826 193.310206,539.948826 Z" id="Path" fill="#626262"></path>
            <path d="M116.310206,544.948826 C116.400206,547.600826 115.734206,549.933826 114.310206,551.948826 C114.220206,549.296826 114.886206,546.963826 116.310206,544.948826 Z" id="Path" fill="#727272"></path>
            <path d="M953.310206,547.948826 C953.390206,551.097826 952.390206,553.764826 950.310206,555.948826 C950.230206,552.799826 951.230206,550.132826 953.310206,547.948826 Z" id="Path" fill="#9B9D9C"></path>
            <path d="M1066.31021,539.948826 C1067.23021,548.224826 1065.23021,555.891826 1060.31021,562.948826 C1060.72021,558.221826 1062.22021,553.888826 1064.81021,549.948826 C1065.85021,546.691826 1066.35021,543.358826 1066.31021,539.948826 Z" id="Path" fill="#6C6C6C"></path>
            <path d="M568.310206,550.948826 C568.595206,552.736826 568.262206,554.403826 567.310206,555.948826 C566.143206,557.527826 564.810206,558.860826 563.310206,559.948826 C564.584206,556.688826 566.250206,553.688826 568.310206,550.948826 Z" id="Path" fill="#424242"></path>
            <path d="M72.3102063,552.948826 C72.3662063,558.179826 71.6992063,563.179826 70.3102063,567.948826 C70.1122063,562.698826 70.7792063,557.698826 72.3102063,552.948826 Z" id="Path" fill="#B3B3B3"></path>
            <path d="M791.310206,553.948826 C791.060206,557.775826 789.730206,561.108826 787.310206,563.948826 C787.560206,560.121826 788.890206,556.788826 791.310206,553.948826 Z" id="Path" fill="#4F4F4F"></path>
            <path d="M145.310206,553.948826 C145.237206,555.475826 145.904206,556.475826 147.310206,556.948826 C145.999206,559.830826 144.832206,562.830826 143.810206,565.948826 C143.158206,561.692826 143.658206,557.692826 145.310206,553.948826 Z" id="Path" fill="#B4B4B4"></path>
            <path d="M428.310206,550.948826 C425.727206,556.849826 423.227206,562.849826 420.810206,568.948826 C420.102206,569.829826 419.268206,570.495826 418.310206,570.948826 C421.089206,563.904826 424.422206,557.237826 428.310206,550.948826 Z" id="Path" fill="#949494"></path>
            <path d="M393.310206,557.948826 C393.766206,563.044826 392.766206,567.710826 390.310206,571.948826 C391.026206,567.099826 392.026206,562.433826 393.310206,557.948826 Z" id="Path" fill="#9C9C9D"></path>
            <path d="M187.310206,559.948826 C187.415206,563.706826 186.415206,567.040826 184.310206,569.948826 C184.533206,566.286826 185.533206,562.953826 187.310206,559.948826 Z" id="Path" fill="#777879"></path>
            <path d="M786.310206,564.948826 C786.550206,567.346826 785.880206,569.346826 784.310206,570.948826 C784.070206,568.550826 784.740206,566.550826 786.310206,564.948826 Z" id="Path" fill="#5A5A5A"></path>
            <path d="M255.310206,563.948826 C255.055206,566.415826 254.055206,568.415826 252.310206,569.948826 C252.565206,567.481826 253.565206,565.481826 255.310206,563.948826 Z" id="Path" fill="#666867"></path>
            <path d="M290.310206,557.948826 C289.572206,568.598826 289.238206,579.265826 289.310206,589.948826 C288.644206,585.795826 288.311206,581.461826 288.310206,576.948826 C288.130206,570.376826 288.796206,564.043826 290.310206,557.948826 Z" id="Path" fill="#797979"></path>
            <path d="M677.310206,557.948826 C677.185206,571.963826 677.519206,585.963826 678.310206,599.948826 C677.588206,599.530826 677.088206,598.864826 676.810206,597.948826 C675.983206,584.442826 676.150206,571.108826 677.310206,557.948826 Z" id="Path" fill="#9B9B9B"></path>
            <path d="M827.310206,565.948826 C826.650206,569.914826 826.310206,573.914826 826.310206,577.948826 C825.650206,576.655826 825.320206,575.155826 825.310206,573.448826 C825.220206,570.627826 825.880206,568.127826 827.310206,565.948826 Z" id="Path" fill="#5F5F5F"></path>
            <path d="M331.310206,564.948826 C330.974206,570.334826 329.640206,575.334826 327.310206,579.948826 C327.863206,574.642826 329.196206,569.642826 331.310206,564.948826 Z" id="Path" fill="#6D6E6D"></path>
            <path d="M418.310206,571.948826 C418.551206,574.346826 417.884206,576.346826 416.310206,577.948826 C416.069206,575.550826 416.736206,573.550826 418.310206,571.948826 Z" id="Path" fill="#585858"></path>
            <path d="M633.310206,569.948826 C631.591206,576.465826 628.924206,582.465826 625.310206,587.948826 C626.928206,581.387826 629.595206,575.387826 633.310206,569.948826 Z" id="Path" fill="#909090"></path>
            <path d="M784.310206,570.948826 C782.720206,575.131826 780.390206,578.798826 777.310206,581.948826 C778.900206,577.765826 781.230206,574.098826 784.310206,570.948826 Z" id="Path" fill="#6D6D6D"></path>
            <path d="M327.310206,579.948826 C326.681206,582.845826 325.681206,585.512826 324.310206,587.948826 C324.155206,584.732826 325.155206,582.065826 327.310206,579.948826 Z" id="Path" fill="#5E5E5E"></path>
            <path d="M777.310206,581.948826 C776.380206,584.818826 774.710206,587.152826 772.310206,588.948826 C773.240206,586.078826 774.910206,583.744826 777.310206,581.948826 Z" id="Path" fill="#7C7C7C"></path>
            <path d="M572.310206,579.948826 C571.141206,582.959826 569.474206,585.626826 567.310206,587.948826 C567.961206,584.645826 569.628206,581.978826 572.310206,579.948826 Z" id="Path" fill="#666767"></path>
            <path d="M1038.31021,575.948826 C1035.47021,582.409826 1031.47021,588.243826 1026.31021,593.448826 C1023.94021,594.681826 1021.44021,595.514826 1018.81021,595.948826 C1016.63021,595.926826 1015.13021,594.926826 1014.31021,592.948826 C1015.90021,593.368826 1017.40021,594.034826 1018.81021,594.948826 C1020.70021,594.252826 1022.54021,593.418826 1024.31021,592.448826 C1029.35021,587.155826 1034.02021,581.655826 1038.31021,575.948826 Z" id="Path" fill="#717171"></path>
            <path d="M710.310206,562.948826 C710.467206,564.321826 710.300206,565.655826 709.810206,566.948826 C704.620206,575.328826 699.953206,583.994826 695.810206,592.948826 C694.193206,595.211826 692.360206,597.211826 690.310206,598.948826 C695.980206,586.264826 702.647206,574.264826 710.310206,562.948826 Z" id="Path" fill="#7F7F7F"></path>
            <path d="M950.310206,555.948826 C945.340206,574.193826 939.010206,591.860826 931.310206,608.948826 C935.890206,590.547826 942.220206,572.881826 950.310206,555.948826 Z" id="Path" fill="#8F8F8F"></path>
            <path d="M415.310206,579.948826 C414.259206,585.055826 411.925206,589.389826 408.310206,592.948826 C409.869206,588.160826 412.203206,583.827826 415.310206,579.948826 Z" id="Path" fill="#636363"></path>
            <path d="M432.310206,577.948826 C432.287206,580.375826 431.787206,582.708826 430.810206,584.948826 C428.906206,589.226826 426.739206,593.226826 424.310206,596.948826 C426.213206,590.224826 428.879206,583.891826 432.310206,577.948826 Z" id="Path" fill="#555555"></path>
            <path d="M576.310206,585.948826 C577.467206,588.721826 578.134206,591.721826 578.310206,594.948826 C577.693206,594.837826 577.193206,594.504826 576.810206,593.948826 C576.313206,591.302826 576.146206,588.635826 576.310206,585.948826 Z" id="Path" fill="#9C9C9C"></path>
            <path d="M492.310206,576.948826 C492.123206,579.012826 491.623206,581.012826 490.810206,582.948826 C486.768206,591.118826 482.601206,599.118826 478.310206,606.948826 C479.127206,603.969826 479.961206,600.969826 480.810206,597.948826 C485.213206,591.132826 489.046206,584.132826 492.310206,576.948826 Z" id="Path" fill="#A4A4A4"></path>
            <path d="M578.310206,597.948826 C579.884206,599.550826 580.551206,601.550826 580.310206,603.948826 C578.736206,602.346826 578.069206,600.346826 578.310206,597.948826 Z" id="Path" fill="#8E8E8E"></path>
            <path d="M404.310206,600.948826 C404.055206,603.415826 403.055206,605.415826 401.310206,606.948826 C401.565206,604.481826 402.565206,602.481826 404.310206,600.948826 Z" id="Path" fill="#575757"></path>
            <path d="M109.310206,579.948826 C110.076206,594.323826 110.076206,608.657826 109.310206,622.948826 C108.508206,608.654826 108.508206,594.321826 109.310206,579.948826 Z" id="Path" fill="#7C7C7C"></path>
            <path d="M738.310206,607.948826 C740.310206,609.281826 741.977206,610.948826 743.310206,612.948826 C740.643206,612.281826 738.977206,610.615826 738.310206,607.948826 Z" id="Path" fill="#979797"></path>
            <path d="M778.310206,607.948826 C775.860206,611.004826 772.860206,613.337826 769.310206,614.948826 C771.760206,611.892826 774.760206,609.559826 778.310206,607.948826 Z" id="Path" fill="#797979"></path>
            <path d="M626.310206,613.948826 C625.391206,616.537826 623.724206,618.537826 621.310206,619.948826 C622.229206,617.359826 623.896206,615.359826 626.310206,613.948826 Z" id="Path" fill="#949494"></path>
            <path d="M228.310206,617.948826 C226.263206,622.169826 223.263206,625.669826 219.310206,628.448826 C217.098206,629.237826 215.098206,629.070826 213.310206,627.948826 C215.009206,628.108826 216.676206,627.942826 218.310206,627.448826 C221.513206,624.077826 224.846206,620.910826 228.310206,617.948826 Z" id="Path" fill="#727373"></path>
            <path d="M464.310206,619.948826 C465.123206,621.709826 466.123206,623.376826 467.310206,624.948826 C466.733206,626.221826 466.067206,626.221826 465.310206,624.948826 C464.501206,623.377826 464.167206,621.710826 464.310206,619.948826 Z" id="Path" fill="#787878"></path>
            <path d="M239.310206,626.948826 C238.024206,629.565826 236.357206,631.898826 234.310206,633.948826 C234.820206,630.774826 236.487206,628.440826 239.310206,626.948826 Z" id="Path" fill="#717171"></path>
            <path d="M401.310206,626.948826 C400.225206,629.035826 398.559206,630.368826 396.310206,630.948826 C397.395206,628.861826 399.061206,627.528826 401.310206,626.948826 Z" id="Path" fill="#747474"></path>
            <path d="M234.310206,633.948826 C232.884206,637.708826 230.217206,640.041826 226.310206,640.948826 C229.022206,638.563826 231.688206,636.230826 234.310206,633.948826 Z" id="Path" fill="#959595"></path>
            <path d="M51.3102063,689.948826 C44.2092063,691.676826 36.8762063,692.676826 29.3102063,692.948826 C36.4112063,691.220826 43.7442063,690.220826 51.3102063,689.948826 Z" id="Path" fill="#ADAFAE"></path>
        </g>
    </g>
</svg>